<svg id="Layer_1" data-name="Layer 1" xmlns="http://www.w3.org/2000/svg" viewBox="0 0 206.67 206.67"><defs><style>.cls-1{fill:#ff954d;}</style></defs><path class="cls-1" d="M78.67,113c0,8.8,4.4,15.2,13.2,15.2,11.6,0,22.19-14.8,24.39-27.2l4.21-22.6a34.63,34.63,0,0,0-10-1.4C92.87,77,78.67,93.6,78.67,113Z"/><path class="cls-1" d="M174,0H32.67A32.67,32.67,0,0,0,0,32.67V174a32.67,32.67,0,0,0,32.67,32.67H174A32.67,32.67,0,0,0,206.67,174V32.67A32.67,32.67,0,0,0,174,0ZM130.86,139c-8,0-15.39-5.4-14.8-17.6h-.8c-7,11.8-16.19,17.6-28.19,17.6-11.6,0-21.6-9.4-21.6-25.2,0-24.8,19.6-47.4,47.4-47.4a52.68,52.68,0,0,1,21.39,4.2l-6.79,36.2c-3,15.2-.61,22.2,6,22.4,10.19.2,21.59-13.4,21.59-36.6,0-29-17.39-49.8-48.39-49.8-32.6,0-60,25.8-60,66.4,0,33.4,21.8,54,51.4,54,11.4,0,22-2.4,30.19-7l3.21,8.6c-11,5.8-22.21,8-35.6,8-32.8,0-60.6-24-60.6-62.4,0-41.2,28.6-76.8,73-76.8,34.8,0,58.2,24.4,58.2,57.8C166.46,121.4,149.66,139,130.86,139Z"/></svg>