<svg id="Layer_1" data-name="Layer 1" xmlns="http://www.w3.org/2000/svg" viewBox="0 0 76 76"><defs><style>.cls-1{fill:#039be5;}.cls-2{fill:#fff;}</style></defs><path class="cls-1" d="M76,38A38,38,0,1,0,36.5,76a40.79,40.79,0,0,1-4.18-.43V48.07H22.91v-10h9.41V31.44c0-11,5.36-15.84,14.5-15.84a54.54,54.54,0,0,1,7.8.47v8.72H48.38c-3.88,0-5.24,3.68-5.24,7.83v5.46H54.52L53,48.07H43.14V75.61c-1.22.17-2.46.3-3.71.35A38,38,0,0,0,76,38Z"/><path class="cls-2" d="M38,76c-.5,0-1,0-1.5,0C37,76,37.5,76,38,76Z"/><path class="cls-2" d="M39.43,76c-.48,0-1,0-1.43,0C38.48,76,39,76,39.43,76Z"/></svg>