<svg xmlns="http://www.w3.org/2000/svg" width="370" height="90" viewBox="0 0 370 90"><defs><style>.cls-1{fill:none;}.cls-2{fill:#f2f4f6;}.cls-3{fill:#c3c8ca;}.cls-4{fill:#878b8e;}.cls-5{fill:#b4babd;}.cls-6{fill:#6f7275;}.cls-7{fill:#dee4e9;}</style></defs><g id="Layer_2" data-name="Layer 2"><path class="cls-1" d="M213.43,75.79l.15,0,.08,1.42C213.58,76.76,213.5,76.3,213.43,75.79Z"/><path d="M19,44.7c-1.75.69-3.28,2.2-2.07,5.51,2.34,6.39,9.77,8,11.34,7.41S83.5,67.56,83.5,67.56c1.21.24,3.2.6,4.42.79l17,2.75c1.22.19,3.23.4,4.46.45L138.6,72.8c1.21,0,3.16.09,4.4.09,27.59-6.81,59.82-14.11,74.91-15.1,29.15-1.93,41.14,3.75,41.14,3.75a8.79,8.79,0,0,1,3.12,2.7l1.48,2.3c1.86.84-6.21,2.58-19.45,4.73L313.5,68c1.24-.06,3.25-.25,4.47-.42l21-3a42.91,42.91,0,0,0,4.37-.92S370.2,56.2,363,50.41l-6.89-4.15a24.39,24.39,0,0,0-4-1.84l-5-1.71a14.63,14.63,0,0,1-2.22-1h0l-3.35-3a1.87,1.87,0,0,0-1.15-.41h-.29l-.35-.26a15.57,15.57,0,0,0-3.84-2L332.75,35a15.72,15.72,0,0,0-4.37-.64L293,35.21c-1.24,0-3.26.1-4.5.15L244,37.17c-1.24,0-3.26.2-4.49.34L225.27,39c-1.23.13-3.24.38-4.46.54L208.6,41.21c-1.22.16-3.24.32-4.48.36L89.53,44.92a23.5,23.5,0,0,1-4.44-.39,32.48,32.48,0,0,1-4.7-1.48L82,42.81c.37-.06.38-.19,0-.29l-5.69-1.65a.42.42,0,0,0-.39,0A20.08,20.08,0,0,1,71.09,37C66.15,31.28,25.67,4.87,25.67,4.87A8.84,8.84,0,0,0,21.6,3.68H7.3c-1.24,0-1.84.84-1.35,1.86L23.82,42.38a1.65,1.65,0,0,1,.15.48l-.61-.12c-.36-.07-.59.13-.5.46l.21.74a.42.42,0,0,0,.06.14,2.27,2.27,0,0,1-.66.07h-.63C16.24,30,9,16.3,2.5,2.43,8.79,2.28,15,1.05,21.32,1.62,38.75,9.55,53.56,22.34,69.1,32.37s-1,8.46,25.62,10,77.71-2.55,99.85-3.19S210,37.09,222.33,36.5s11.22-1.73,24-2.38,31.54-1.46,45.72-1.93,27.47-.59,41.39-1c2.37,1,4.91,1.89,7.36,2.83l7,6c3.29,1.44,6.14,2.18,9.49,3.84s5.77,4.45,10.21,5.74c-3.92,9.83-14.3,14.41-26.76,15.91s-13.26,3-33.86,4.34c-15.05,1-44.62,2.58-68.88,3.65,0-.43.06-.86.08-1.27l-2.48.38c-6.66,1-14.14,2.08-22,3.16l-.15,0-4.54.62c-42.64,5.8-94.52,11.86-94.52,11.86-1.23.14-3.25.26-4.48.26H95.74c-1.24,0-2.25-.62-2.25-1.39s1-1.65,2.15-2c0,0,18.19-5,41-10.68-11-.25-17.6-.7-27.56-1.51-12.74-1-13.37-1.8-25.76-4.11s-43.51-10.63-55.4-9-9.16-2.64-13-8.45C11.84,46.84,15.37,45.35,19,44.7ZM102.4,83.89c-1.19.32-2.16,1.18-2.16,1.91s1,1.32,2.25,1.32H115.7c1.24,0,3.26-.12,4.49-.26,0,0,148.88-17.39,141.67-20.63l-1.35-2.1a8.79,8.79,0,0,0-3.12-2.7s-11.28-5.34-39-3.52S102.4,83.89,102.4,83.89Z"/><path class="cls-2" d="M22.47,44.15a2.27,2.27,0,0,0,.66-.07.91.91,0,0,0,.77.45H40.73c.37,0,.37,0,0,0l-12.61-.88a9.89,9.89,0,0,1-1.33-.18L24,42.86a1.65,1.65,0,0,0-.15-.48L6,5.53c-.49-1,.11-1.86,1.35-1.86H21.6a8.84,8.84,0,0,1,4.07,1.19S66.15,31.28,71.09,37A20.08,20.08,0,0,0,76,40.9a.32.32,0,0,0-.07.36l.08.25a.54.54,0,0,1-.48.69l-11,1.63c-.36.05-1,.11-1.34.13L53,44.5h0l25-1.15c.37,0,1-.08,1.34-.14l1.09-.16a32.48,32.48,0,0,0,4.7,1.48,23.5,23.5,0,0,0,4.44.39l114.59-3.35c1.24,0,3.26-.2,4.48-.36l12.21-1.63c1.22-.16,3.23-.41,4.46-.54l14.21-1.53c1.23-.14,3.25-.29,4.49-.34l44.57-1.81c1.24,0,3.26-.12,4.5-.15l35.34-.88a15.72,15.72,0,0,1,4.37.64L335.94,36a15.57,15.57,0,0,1,3.84,2l.35.26-4,.14a1.13,1.13,0,0,0-.91.6s-1.19,2.88.65,2.67,4.09.61,9,0a14.63,14.63,0,0,0,2.22,1l5,1.71a24.39,24.39,0,0,1,4,1.84L363,50.41c7.18,5.79-19.68,13.28-19.68,13.28a42.91,42.91,0,0,1-4.37.92l-21,3c-1.22.17-3.23.36-4.47.42l-69.3,3.24c13.24-2.15,21.31-3.89,19.45-4.73l-1.48-2.3a8.79,8.79,0,0,0-3.12-2.7s-12-5.68-41.14-3.75c-15.09,1-47.32,8.29-74.91,15.1-1.24,0-3.19,0-4.4-.09l-29.27-1.25c-1.23,0-3.24-.26-4.46-.45l-17-2.75c-1.22-.19-3.21-.55-4.42-.79,0,0-53.61-10.55-55.19-9.94s-9-1-11.34-7.41c-1.21-3.31.32-4.82,2.07-5.51a9.5,9.5,0,0,1,2.8-.55Zm269-1.63.16,2.38a2,2,0,0,0,2.18,1.73l2.64-.15a1.93,1.93,0,0,0,1.92-2l-.16-2.38a2,2,0,0,0-2.18-1.73l-2.64.15A1.93,1.93,0,0,0,291.5,42.52Zm-8.78.4.16,2.38A2,2,0,0,0,285.06,47l2.64-.15a1.92,1.92,0,0,0,1.92-2l-.16-2.37a2,2,0,0,0-2.18-1.74l-2.64.15A1.94,1.94,0,0,0,282.72,42.92Zm-9.23.61.17,2.38a2,2,0,0,0,2.17,1.73l2.64-.15a1.93,1.93,0,0,0,1.93-2l-.17-2.38a2,2,0,0,0-2.18-1.73l-2.64.15A1.94,1.94,0,0,0,273.49,43.53Zm-9.45,1,.16,2.37a2,2,0,0,0,2.18,1.74l2.64-.15a1.94,1.94,0,0,0,1.92-2l-.16-2.37a2,2,0,0,0-2.18-1.73l-2.64.14A1.94,1.94,0,0,0,264,44.55Zm-8.78,1,.16,2.38a2,2,0,0,0,2.18,1.73l2.64-.15a1.93,1.93,0,0,0,1.92-2L262,45.18a2,2,0,0,0-2.18-1.73l-2.64.15A1.93,1.93,0,0,0,255.26,45.56Zm-8.78.41.16,2.37a2,2,0,0,0,2.18,1.73l2.64-.14a1.94,1.94,0,0,0,1.92-2l-.16-2.37A2,2,0,0,0,251,43.85L248.4,44A1.94,1.94,0,0,0,246.48,46Zm-9.23.6.17,2.38a2,2,0,0,0,2.17,1.73l2.64-.15a1.93,1.93,0,0,0,1.93-2L244,46.19a2,2,0,0,0-2.18-1.73l-2.64.15A1.94,1.94,0,0,0,237.25,46.57Zm-9.45,1L228,50a2,2,0,0,0,2.18,1.74l2.64-.15a1.94,1.94,0,0,0,1.92-2l-.16-2.38a2,2,0,0,0-2.18-1.73l-2.64.15A1.93,1.93,0,0,0,227.8,47.59Z"/><path class="cls-3" d="M293.42,40.56l2.64-.15a2,2,0,0,1,2.18,1.73l.16,2.38a1.93,1.93,0,0,1-1.92,2l-2.64.15a2,2,0,0,1-2.18-1.73l-.16-2.38A1.93,1.93,0,0,1,293.42,40.56Z"/><path class="cls-3" d="M284.64,41l2.64-.15a2,2,0,0,1,2.18,1.74l.16,2.37a1.92,1.92,0,0,1-1.92,2l-2.64.15a2,2,0,0,1-2.18-1.73l-.16-2.38A1.94,1.94,0,0,1,284.64,41Z"/><path class="cls-3" d="M275.41,41.57l2.64-.15a2,2,0,0,1,2.18,1.73l.17,2.38a1.93,1.93,0,0,1-1.93,2l-2.64.15a2,2,0,0,1-2.17-1.73l-.17-2.38A1.94,1.94,0,0,1,275.41,41.57Z"/><path class="cls-3" d="M266,42.58l2.64-.14a2,2,0,0,1,2.18,1.73l.16,2.37a1.94,1.94,0,0,1-1.92,2l-2.64.15a2,2,0,0,1-2.18-1.74L264,44.55A1.94,1.94,0,0,1,266,42.58Z"/><path class="cls-3" d="M257.18,43.6l2.64-.15A2,2,0,0,1,262,45.18l.16,2.38a1.93,1.93,0,0,1-1.92,2l-2.64.15a2,2,0,0,1-2.18-1.73l-.16-2.38A1.93,1.93,0,0,1,257.18,43.6Z"/><path class="cls-3" d="M248.4,44l2.64-.15a2,2,0,0,1,2.18,1.74l.16,2.37a1.94,1.94,0,0,1-1.92,2l-2.64.14a2,2,0,0,1-2.18-1.73L246.48,46A1.94,1.94,0,0,1,248.4,44Z"/><path class="cls-3" d="M239.17,44.61l2.64-.15A2,2,0,0,1,244,46.19l.17,2.38a1.93,1.93,0,0,1-1.93,2l-2.64.15A2,2,0,0,1,237.42,49l-.17-2.38A1.94,1.94,0,0,1,239.17,44.61Z"/><path class="cls-3" d="M229.72,45.63l2.64-.15a2,2,0,0,1,2.18,1.73l.16,2.38a1.94,1.94,0,0,1-1.92,2l-2.64.15A2,2,0,0,1,228,50l-.16-2.37A1.93,1.93,0,0,1,229.72,45.63Z"/><path class="cls-4" d="M78,43.35,53,44.5h0L63.1,44c.37,0,1-.08,1.34-.13l11-1.63a.54.54,0,0,0,.48-.69l-.08-.25A.32.32,0,0,1,76,40.9a.42.42,0,0,1,.39,0L82,42.52c.36.1.35.23,0,.29l-1.63.24-1.09.16C78.93,43.27,78.33,43.33,78,43.35Z"/><path class="cls-4" d="M28.12,43.61l12.61.88c.37,0,.37,0,0,0H23.9a.91.91,0,0,1-.77-.45.42.42,0,0,1-.06-.14l-.21-.74c-.09-.33.14-.53.5-.46l.61.12,2.82.57A9.89,9.89,0,0,0,28.12,43.61Z"/><path class="cls-5" d="M213.66,77.19l-.08-1.42c7.88-1.08,15.36-2.15,22-3.16-.08,1-.18,2.3-.26,3.14,0,0-.41,4.52.39,5.23a2.07,2.07,0,0,1-.2.66c-2.12,2.77-19.38.67-19.38.67A2.65,2.65,0,0,1,213.81,80l0-.45.14,0C214.24,79.71,214,78.75,213.66,77.19Z"/><path class="cls-5" d="M335.88,41.69c-1.84.21-.65-2.67-.65-2.67a1.13,1.13,0,0,1,.91-.6l4-.14h.29a1.87,1.87,0,0,1,1.15.41l3.35,3h0C340,42.3,337.72,41.49,335.88,41.69Z"/><path class="cls-6" d="M213.66,77.19c.29,1.56.58,2.52.26,2.42l-.14,0a9.47,9.47,0,0,1-4.14-2,2.16,2.16,0,0,1-.75-1.17l4.54-.62C213.5,76.3,213.58,76.76,213.66,77.19Z"/><path class="cls-6" d="M235.34,75.75c.08-.84.18-2.1.26-3.14l2.48-.38c0,.41,0,.84-.08,1.27a42.42,42.42,0,0,1-.9,6.31c-.35,1.45-.83,1.25-1.12,1.26a.37.37,0,0,1-.25-.09C234.93,80.27,235.34,75.75,235.34,75.75Z"/><path class="cls-7" d="M218.42,57.91c27.69-1.82,39,3.52,39,3.52a8.79,8.79,0,0,1,3.12,2.7l1.35,2.1c7.21,3.24-141.67,20.63-141.67,20.63-1.23.14-3.25.26-4.49.26H102.49c-1.23,0-2.25-.6-2.25-1.32s1-1.59,2.16-1.91C102.4,83.89,190.73,59.74,218.42,57.91Z"/></g></svg>