<svg xmlns="http://www.w3.org/2000/svg" width="270" height="75" viewBox="0 0 270 75"><defs><style>.cls-1{fill:none;}.cls-2{fill:#f2f4f6;}.cls-3{fill:#c3c8ca;}.cls-4{fill:#878b8e;}.cls-5{fill:#b4babd;}.cls-6{fill:#6f7275;}.cls-7{fill:#dee4e9;}</style></defs><g id="Layer_2" data-name="Layer 2"><path class="cls-1" d="M114.56,62l-.11,0,0,1.12C114.46,62.72,114.51,62.35,114.56,62Z"/><path d="M254.31,37.27c1.26.54,2.36,1.74,1.49,4.37-1.68,5.07-7,6.36-8.16,5.88S208,55.41,208,55.41c-.87.19-2.3.48-3.18.63l-12.18,2.18a28.92,28.92,0,0,1-3.21.36l-21,1c-.87,0-2.27.07-3.17.08-19.83-5.41-43-11.21-53.85-12-21-1.52-29.57,3-29.57,3a6.68,6.68,0,0,0-2.25,2.14L78.46,54.6c-1.34.67,4.46,2,14,3.75L42.62,55.78c-.89,0-2.34-.19-3.22-.33L24.31,53.07a28,28,0,0,1-3.14-.73S1.86,46.39,7,41.8l5-3.3A16.74,16.74,0,0,1,14.84,37l3.6-1.36A10.88,10.88,0,0,0,20,34.87h0l2.41-2.39a1.26,1.26,0,0,1,.83-.32h.21l.25-.22a11.11,11.11,0,0,1,2.76-1.58l2.29-.83A9.88,9.88,0,0,1,31.92,29l25.41.7c.89,0,2.35.07,3.23.11l32.05,1.45c.89,0,2.34.15,3.22.26l10.22,1.22c.89.1,2.33.3,3.21.43L118,34.49c.88.13,2.33.26,3.22.29l82.38,2.65a15,15,0,0,0,3.2-.31A20.84,20.84,0,0,0,210.21,36L209,35.76c-.26,0-.27-.15,0-.23l4.09-1.31a.27.27,0,0,1,.28,0,14.75,14.75,0,0,0,3.5-3.13c3.55-4.51,32.65-25.48,32.65-25.48a5.87,5.87,0,0,1,2.93-.94h10.28a1,1,0,0,1,1,1.47L250.87,35.42a2,2,0,0,0-.11.38l.44-.1c.26-.05.42.11.36.37l-.15.59a.49.49,0,0,1,0,.11,1.42,1.42,0,0,0,.47,0,3.85,3.85,0,0,1,.45,0c4-11.26,9.21-22.12,13.91-33.13-4.52-.12-9-1.09-13.53-.64-12.53,6.3-23.18,16.45-34.35,24.41s.71,6.72-18.42,8-55.86-2-71.78-2.53-11.12-1.68-20-2.15-8.07-1.37-17.24-1.89S68.25,27.7,58.06,27.33s-19.76-.47-29.76-.79c-1.7.8-3.53,1.5-5.29,2.24L18,33.55c-2.36,1.14-4.41,1.73-6.82,3S7,40.13,3.8,41.15C6.62,49,14.08,52.6,23,53.79s9.53,2.38,24.34,3.44c10.82.78,32.08,2.05,49.51,2.89,0-.34,0-.67,0-1l1.78.3c4.79.8,10.17,1.65,15.83,2.51l.11,0,3.26.49c30.66,4.61,68,9.41,68,9.41a28.85,28.85,0,0,0,3.22.21h10.17c.89,0,1.62-.49,1.62-1.1s-.7-1.32-1.55-1.57c0,0-13.07-4-29.47-8.49,7.91-.19,12.65-.55,19.81-1.19,9.16-.81,9.61-1.43,18.52-3.27S239.37,48,247.93,49.3s6.58-2.1,9.36-6.71C259.49,39,256.94,37.77,254.31,37.27Zm-59.93,31.1c.86.26,1.55.94,1.55,1.52s-.73,1-1.62,1h-9.49a28.85,28.85,0,0,1-3.22-.21s-107-13.8-101.86-16.38l1-1.66A6.58,6.58,0,0,1,83,50.55s8.11-4.25,28-2.8S194.38,68.37,194.38,68.37Z"/><path class="cls-2" d="M251.84,36.82a1.42,1.42,0,0,1-.47,0,.66.66,0,0,1-.56.36H238.72c-.27,0-.27,0,0,0l9.06-.69a7.93,7.93,0,0,0,1-.14l2-.46a2,2,0,0,1,.11-.38L263.72,6.16a1,1,0,0,0-1-1.47H252.47a5.87,5.87,0,0,0-2.93.94s-29.1,21-32.65,25.48a14.75,14.75,0,0,1-3.5,3.13.28.28,0,0,1,.05.28l-.06.2a.42.42,0,0,0,.35.54l7.94,1.3c.26,0,.7.09,1,.1l7.29.43h0l-18-.91c-.26,0-.7-.06-1-.11l-.78-.13a20.84,20.84,0,0,1-3.38,1.17,15,15,0,0,1-3.2.31l-82.38-2.65c-.89,0-2.34-.16-3.22-.29l-8.77-1.29c-.88-.13-2.32-.33-3.21-.43L95.83,31.55c-.88-.11-2.33-.22-3.22-.26l-32-1.45c-.88,0-2.34-.09-3.23-.11L31.92,29a9.88,9.88,0,0,0-3.14.51l-2.29.83A11.11,11.11,0,0,0,23.73,32l-.25.22,2.86.11a.8.8,0,0,1,.66.47s.86,2.29-.47,2.12-2.94.49-6.5,0a10.88,10.88,0,0,1-1.59.81L14.84,37A16.74,16.74,0,0,0,12,38.5L7,41.8C1.86,46.39,21.17,52.34,21.17,52.34a28,28,0,0,0,3.14.73L39.4,55.45c.88.14,2.33.29,3.22.33l49.82,2.57c-9.52-1.7-15.32-3.08-14-3.75l1.06-1.83a6.68,6.68,0,0,1,2.25-2.14s8.61-4.5,29.57-3c10.85.79,34,6.59,53.85,12,.9,0,2.3,0,3.17-.08l21-1a28.92,28.92,0,0,0,3.21-.36L204.79,56c.88-.15,2.31-.44,3.18-.63,0,0,38.54-8.37,39.67-7.89s6.48-.81,8.16-5.88c.87-2.63-.23-3.83-1.49-4.37a5.91,5.91,0,0,0-2-.44A3.85,3.85,0,0,0,251.84,36.82ZM58.44,35.53l-.12,1.89a1.48,1.48,0,0,1-1.57,1.37l-1.89-.12a1.48,1.48,0,0,1-1.39-1.55l.12-1.89a1.48,1.48,0,0,1,1.57-1.38l1.9.12A1.48,1.48,0,0,1,58.44,35.53Zm6.31.32-.12,1.89a1.48,1.48,0,0,1-1.57,1.37L61.17,39a1.47,1.47,0,0,1-1.38-1.56l.11-1.89a1.48,1.48,0,0,1,1.57-1.37l1.9.11A1.48,1.48,0,0,1,64.75,35.85Zm6.63.49-.12,1.88A1.48,1.48,0,0,1,69.7,39.6l-1.9-.12a1.48,1.48,0,0,1-1.38-1.56L66.54,36a1.47,1.47,0,0,1,1.56-1.37l1.9.12A1.48,1.48,0,0,1,71.38,36.34Zm6.8.8L78.06,39A1.47,1.47,0,0,1,76.5,40.4l-1.9-.12a1.47,1.47,0,0,1-1.38-1.55l.11-1.89a1.49,1.49,0,0,1,1.57-1.38l1.9.12A1.48,1.48,0,0,1,78.18,37.14Zm6.31.8-.12,1.89a1.48,1.48,0,0,1-1.56,1.38l-1.9-.12a1.48,1.48,0,0,1-1.38-1.56l.12-1.89a1.47,1.47,0,0,1,1.56-1.37l1.9.12A1.47,1.47,0,0,1,84.49,37.94Zm6.31.33-.12,1.88a1.48,1.48,0,0,1-1.56,1.38l-1.9-.12a1.48,1.48,0,0,1-1.38-1.56L86,38a1.48,1.48,0,0,1,1.56-1.38l1.9.12A1.48,1.48,0,0,1,90.8,38.27Zm6.64.48-.12,1.89A1.48,1.48,0,0,1,95.75,42l-1.89-.12a1.47,1.47,0,0,1-1.39-1.55l.12-1.89a1.48,1.48,0,0,1,1.57-1.38l1.89.12A1.48,1.48,0,0,1,97.44,38.75Zm6.79.8-.12,1.89a1.48,1.48,0,0,1-1.56,1.38l-1.9-.12a1.48,1.48,0,0,1-1.38-1.56l.12-1.89A1.47,1.47,0,0,1,101,37.88l1.9.12A1.47,1.47,0,0,1,104.23,39.55Z"/><path class="cls-3" d="M57.06,34l-1.9-.12a1.48,1.48,0,0,0-1.57,1.38l-.12,1.89a1.48,1.48,0,0,0,1.39,1.55l1.89.12a1.48,1.48,0,0,0,1.57-1.37l.12-1.89A1.48,1.48,0,0,0,57.06,34Z"/><path class="cls-3" d="M63.37,34.29l-1.9-.11a1.48,1.48,0,0,0-1.57,1.37l-.11,1.89A1.47,1.47,0,0,0,61.17,39l1.89.11a1.48,1.48,0,0,0,1.57-1.37l.12-1.89A1.48,1.48,0,0,0,63.37,34.29Z"/><path class="cls-3" d="M70,34.78l-1.9-.12A1.47,1.47,0,0,0,66.54,36l-.12,1.89a1.48,1.48,0,0,0,1.38,1.56l1.9.12a1.48,1.48,0,0,0,1.56-1.38l.12-1.88A1.48,1.48,0,0,0,70,34.78Z"/><path class="cls-3" d="M76.8,35.58l-1.9-.12a1.49,1.49,0,0,0-1.57,1.38l-.11,1.89a1.47,1.47,0,0,0,1.38,1.55l1.9.12A1.47,1.47,0,0,0,78.06,39l.12-1.89A1.48,1.48,0,0,0,76.8,35.58Z"/><path class="cls-3" d="M83.11,36.39l-1.9-.12a1.47,1.47,0,0,0-1.56,1.37l-.12,1.89a1.48,1.48,0,0,0,1.38,1.56l1.9.12a1.48,1.48,0,0,0,1.56-1.38l.12-1.89A1.47,1.47,0,0,0,83.11,36.39Z"/><path class="cls-3" d="M89.42,36.71l-1.9-.12A1.48,1.48,0,0,0,86,38l-.12,1.88a1.48,1.48,0,0,0,1.38,1.56l1.9.12a1.48,1.48,0,0,0,1.56-1.38l.12-1.88A1.48,1.48,0,0,0,89.42,36.71Z"/><path class="cls-3" d="M96.05,37.19l-1.89-.12a1.48,1.48,0,0,0-1.57,1.38l-.12,1.89a1.47,1.47,0,0,0,1.39,1.55l1.89.12a1.48,1.48,0,0,0,1.57-1.37l.12-1.89A1.48,1.48,0,0,0,96.05,37.19Z"/><path class="cls-3" d="M102.85,38l-1.9-.12a1.47,1.47,0,0,0-1.56,1.37l-.12,1.89a1.48,1.48,0,0,0,1.38,1.56l1.9.12a1.48,1.48,0,0,0,1.56-1.38l.12-1.89A1.47,1.47,0,0,0,102.85,38Z"/><path class="cls-4" d="M212,36.19l18,.91h0l-7.29-.43c-.26,0-.7-.06-1-.1l-7.94-1.3a.42.42,0,0,1-.35-.54l.06-.2a.28.28,0,0,0-.05-.28.27.27,0,0,0-.28,0L209,35.53c-.26.08-.25.18,0,.23l1.18.19.78.13C211.25,36.13,211.69,36.17,212,36.19Z"/><path class="cls-4" d="M247.78,36.4l-9.06.69c-.27,0-.27,0,0,0h12.09a.66.66,0,0,0,.56-.36.49.49,0,0,0,0-.11l.15-.59c.06-.26-.1-.42-.36-.37l-.44.1-2,.46A7.93,7.93,0,0,1,247.78,36.4Z"/><path class="cls-5" d="M114.4,63.05l0-1.12c-5.66-.86-11-1.71-15.83-2.51.06.83.13,1.82.19,2.49,0,0,.3,3.59-.28,4.15a1.42,1.42,0,0,0,.15.53c1.52,2.2,13.93.54,13.93.54a2,2,0,0,0,1.68-1.83l0-.35-.1,0C114,65.05,114.19,64.3,114.4,63.05Z"/><path class="cls-5" d="M26.53,34.87c1.33.17.47-2.12.47-2.12a.8.8,0,0,0-.66-.47l-2.86-.11h-.21a1.26,1.26,0,0,0-.83.32L20,34.87h0C23.59,35.36,25.21,34.71,26.53,34.87Z"/><path class="cls-6" d="M114.4,63.05c-.21,1.25-.42,2-.19,1.93l.1,0a6.68,6.68,0,0,0,3-1.58,1.72,1.72,0,0,0,.53-.93L114.56,62C114.51,62.35,114.46,62.72,114.4,63.05Z"/><path class="cls-6" d="M98.81,61.91c-.06-.67-.13-1.66-.19-2.49l-1.78-.3c0,.33,0,.66,0,1a38,38,0,0,0,.65,5c.25,1.15.6,1,.81,1a.25.25,0,0,0,.18-.08C99.11,65.5,98.81,61.91,98.81,61.91Z"/><path class="cls-7" d="M111,47.75c-19.91-1.45-28,2.8-28,2.8a6.58,6.58,0,0,0-2.25,2.14l-1,1.66C74.57,56.93,181.6,70.73,181.6,70.73a28.85,28.85,0,0,0,3.22.21h9.49c.89,0,1.62-.47,1.62-1s-.69-1.26-1.55-1.52C194.38,68.37,130.88,49.2,111,47.75Z"/></g></svg>