<svg id="Layer_1" data-name="Layer 1" xmlns="http://www.w3.org/2000/svg" viewBox="0 0 66.01 54.99"><path d="M26.33,21C25.88,14.15,22.41.7,13.27,3.15a7.75,7.75,0,0,0-3.55,7.71c.92,5.56,8.51,7.23,5.52,14.29C13.05,34.74-.47,22.3,0,36.19,0,40.3,8.68,44.32,12.34,43.69,23.81,42.91,27.29,31,26.33,21Zm-.74,9.24c-.9,10.48-14.22,17.52-22.34,9.83C.74,39-.06,36.58.38,34c.85-7.1,7.65-3.83,12-4.66,3.29-1.36,4-6.09,3.49-9.29-.43-4.05-5.86-5.16-5.85-9.41-1.23-6,6.77-10.7,10.46-4.9C26,12.71,26.65,21.74,25.59,30.23Z"/><path d="M23.12,13.4c-1.74-3.61-4-10.73-9.23-8.66a6.28,6.28,0,0,0-1.78,7.87c3.95,4.24,6.6,5.89,5,12.4-.59,3.24-3.79,7.72-7.48,6.5-4.63-3.35-9.87.73-7.35,6a12.11,12.11,0,0,0,20-1.57C25.62,29.24,25.34,20.43,23.12,13.4Zm1.1,11.46c1,8.86-5.47,18.93-15.22,16.65-3.61-1.58-8.35-4-6.57-8.63,2.32-5.49,7.8,1.51,11.25-1.76a11,11,0,0,0,4.14-7.37c.32-3.24-.16-7-3.2-9-4.27-1.84-3.54-11.15,2-9.86C23,8.74,24.45,17.81,24.22,24.86Z"/><path d="M41,32a19.55,19.55,0,0,1-1.43-13.85C42.11,11.79,46.09.52,35.81,0c-4.88.55-6.68,4.5-7.13,8.8-1.35,6.59-1.31,13.61-1.12,20.32C25.93,49.39,49.5,47.57,41,32Zm.89,9.06c-2.93,4-8.63,2.83-11.36-.72-3.09-3.78-2.15-9.31-2.74-13.9.61-8-.68-17.17,3.74-24.18C34.22-.16,39.1-.26,41.18,3c3.59,6.11-2.66,12.61-2.69,19C37.15,28.66,44.61,34.65,41.86,41.05Z"/><path d="M37.62,28.3c-4.17-8.42,7.61-19.87.67-25.92A5.43,5.43,0,0,0,31,6.62a29.24,29.24,0,0,1-.86,4.22c-.55,1.44-.07,3.2-.55,4.73-.06.28.33.41.21.74-.44,1.57,0,3.24-.11,4.75-.72,1.05-.21,2.27-.47,3.4.39,4.63,0,9.7,1.93,13.92-.32.65.23,1,.57,1.24,1.63,1.56,3.48,3.13,5.9,2.55v.06C44.2,40.08,38.94,32.57,37.62,28.3Zm2.85,10.53c.29,1.41-1.54,2.29-2.53,3h0c-2.46.62-5.46-1.24-6.41-3.24.32-.7-.19-1.08-.5-1.42A18.68,18.68,0,0,1,30.07,29c-.27-2.5-.91-5.3,0-7.74.28-1-.14-2,0-3.09-.24-.83.5-1.95-.05-2.54.82-4.84.46-15.08,8.1-12.95,6.54,5.57-5,17.45-.8,25.77C38.44,31.8,40.57,35.34,40.47,38.83Z"/><path d="M58.61,33.69C60.82,23.39,44.1,28.61,51.1,20c2-2.22,6-2.54,6-6.15-.25-6-7.15-4.39-10.55-2.58C41.68,16,38,22.32,40,29.24c1.09,2.47,2,5.84,4.6,6.82,1.94,1.16,4,2.9,6.84,2.44C54.56,38.6,58.55,37.48,58.61,33.69Zm-.38.23c-.42,4.24-5.36,4.37-8.67,4.14-2.31.14-3.26-2.19-5.23-2.42A13.13,13.13,0,0,1,40,23.78c.19-5.22,4-10.21,8.16-12.89,4.86-2.32,11.81.21,7,6-2.39,1.27-4.91,2.53-6,5.24C47.58,29,60.14,24.07,58.23,33.92Z"/><path d="M53.54,28.27c-5.56-.49-8.62-5.05-4-9.36,1.58-2,5-2.08,5.37-4.89a1.93,1.93,0,0,0-1.89-2.3c-7.38-.05-12.35,8.42-11.31,15.12.21,6.07,7.75,12.29,13.67,9C58,33.72,56.88,29,53.54,28.27Zm2.79,4.6C56.51,35,55,36,53.08,36.21c-4.83,1.19-9.28-3.56-10.84-7.64-.28-3-.53-6.42.92-9.22,1.79-3,4.07-6.41,7.82-7,1.51-.36,3.79-.55,3.59,1.69-.34,2.51-3.79,2.74-5.26,4.65C40.32,29.85,57.26,25.67,56.33,32.87Z"/><path d="M40,29.24c-.07-.15-.11-.29-.17-.45a11.56,11.56,0,0,0,2,4.71C41.21,32.08,40.57,30.74,40,29.24Z"/><path d="M65.75,38.4c-.09-3.21-3.47-3.12-5-1.27-1.57-.13-2.13.38-2.53,1.78C56,45.86,67.89,44.21,65.75,38.4Zm-1.62,3.9c-6.76,3.52-7.27-4.82-3.52-4.82.63.23.78-.44,1.18-.79C65.14,34.08,67.21,41.08,64.13,42.3Z"/><path d="M63.28,38.75c-1.12-.19-2.07-1-2.93,0-.73.72-.62,3,.75,2.93,1.59-.06,2.9-.41,2.82-2.1C64,39.15,64,38.75,63.28,38.75Zm.26.84c0,1.14-.29,1.53-1.78,1.69-.7.08-1.42.26-1.39-.88-.17-2.73,1.67-1.46,2.91-1.28C63.7,39.1,63.52,39.33,63.54,39.59Z"/><path d="M3.86,48.52c0-.77,0-1.39,0-2h1l.05,1h0a2.43,2.43,0,0,1,2.19-1.16c1.48,0,2.6,1.22,2.6,3,0,2.15-1.34,3.21-2.79,3.21A2.19,2.19,0,0,1,5,51.74H5V55H3.86ZM5,50.11a2,2,0,0,0,0,.44A1.71,1.71,0,0,0,6.7,51.83c1.18,0,1.86-.94,1.86-2.31,0-1.2-.64-2.23-1.83-2.23A1.78,1.78,0,0,0,5,48.64a1.68,1.68,0,0,0-.07.44Z"/><path d="M10.33,48.43c0-.71,0-1.31-.05-1.87h1l0,1.18h0a1.84,1.84,0,0,1,1.71-1.31,1.48,1.48,0,0,1,.31,0v1a2,2,0,0,0-.38,0,1.55,1.55,0,0,0-1.5,1.4,3.67,3.67,0,0,0-.05.51v3.18H10.33Z"/><path d="M19.17,49.5a3,3,0,0,1-3.06,3.18,2.88,2.88,0,0,1-2.95-3.08,3,3,0,0,1,3.05-3.17A2.86,2.86,0,0,1,19.17,49.5Zm-4.88.07a2,2,0,0,0,1.87,2.29A2.07,2.07,0,0,0,18,49.54c0-1-.52-2.3-1.85-2.3S14.29,48.43,14.29,49.57Z"/><path d="M25.14,43.77V51c0,.53,0,1.14.05,1.54h-1l-.06-1h0A2.29,2.29,0,0,1,22,52.68a2.75,2.75,0,0,1-2.63-3,2.89,2.89,0,0,1,2.76-3.21,2.07,2.07,0,0,1,1.85.91h0V43.77ZM24,49a1.8,1.8,0,0,0-.05-.46,1.65,1.65,0,0,0-1.62-1.26c-1.15,0-1.84,1-1.84,2.31s.61,2.21,1.82,2.21A1.67,1.67,0,0,0,24,50.51,1.78,1.78,0,0,0,24,50Z"/><path d="M31.38,50.91c0,.62,0,1.17.06,1.63h-1l-.06-1h0a2.32,2.32,0,0,1-2,1.11c-1,0-2.12-.52-2.12-2.62v-3.5h1.12v3.31c0,1.14.35,1.91,1.37,1.91a1.61,1.61,0,0,0,1.47-1,1.43,1.43,0,0,0,.11-.56V46.56h1.11Z"/><path d="M36.87,52.32a4.21,4.21,0,0,1-1.77.35A2.88,2.88,0,0,1,32,49.61a3.08,3.08,0,0,1,3.3-3.17,3.78,3.78,0,0,1,1.55.31l-.25.84a2.65,2.65,0,0,0-1.3-.29,2.1,2.1,0,0,0-2.17,2.27A2.07,2.07,0,0,0,35.3,51.8a3.39,3.39,0,0,0,1.38-.29Z"/><path d="M38.93,44.84v1.72h1.6v.83h-1.6v3.23c0,.74.22,1.16.84,1.16a2.41,2.41,0,0,0,.65-.08l0,.82a2.74,2.74,0,0,1-1,.15,1.55,1.55,0,0,1-1.21-.46,2.16,2.16,0,0,1-.43-1.56V47.39h-1v-.83h1V45.13Z"/><path d="M42.27,44.88a.65.65,0,0,1-.71.67.66.66,0,0,1-.67-.67.67.67,0,0,1,.7-.68A.65.65,0,0,1,42.27,44.88ZM41,52.54v-6h1.12v6Z"/><path d="M48.81,49.5a3,3,0,0,1-3.06,3.18,2.88,2.88,0,0,1-3-3.08,3,3,0,0,1,3.05-3.17A2.86,2.86,0,0,1,48.81,49.5Zm-4.88.07a2,2,0,0,0,1.87,2.29,2.07,2.07,0,0,0,1.87-2.32c0-1-.52-2.3-1.85-2.3S43.93,48.43,43.93,49.57Z"/><path d="M49.46,48.18c0-.62,0-1.12-.05-1.62h1l.07,1h0a2.28,2.28,0,0,1,2-1.12c.85,0,2.17.49,2.17,2.54v3.57H53.58V49.1c0-1-.37-1.77-1.42-1.77a1.58,1.58,0,0,0-1.5,1.11,1.56,1.56,0,0,0-.08.51v3.59H49.46Z"/><path d="M55.61,51.43a3,3,0,0,0,1.47.43c.81,0,1.2-.39,1.2-.89s-.32-.8-1.15-1.1c-1.1-.38-1.63-1-1.63-1.69a1.89,1.89,0,0,1,2.13-1.75,3.1,3.1,0,0,1,1.51.37l-.28.79a2.43,2.43,0,0,0-1.26-.35c-.66,0-1,.37-1,.82s.37.72,1.17,1c1.07.4,1.62.92,1.62,1.81,0,1-.84,1.79-2.3,1.79a3.54,3.54,0,0,1-1.73-.41Z"/></svg>