<svg id="Layer_1" data-name="Layer 1" xmlns="http://www.w3.org/2000/svg" width="170" height="740" viewBox="0 0 170 740"><defs><style>.cls-1{fill:#ffdb32;}.cls-2{fill:#ffb54b;}.cls-3{fill:#805b26;}.cls-4{fill:#402d13;}.cls-5{fill:#ff2300;}.cls-6{fill:#c84800;}</style></defs><path class="cls-1" d="M165.8,567.94l-22.72-18.2a4.87,4.87,0,0,1-1.62-3.55l.24-6a2.18,2.18,0,0,0-.52-1.48l-102.11-4c-.22.09-.44.19-.65.3L4.37,552c-1.08.54-1,.84.21.67L44.4,547c1.2-.17,1.33.2.3.82l-18,10.74c-1,.61-.9,1.19.3,1.27l20.45,1.4c1.2.08,1.29.55.19,1L29.3,570.53c-1.1.49-1,1.08.16,1.29l10.94,2c1.19.21,1.52,1.14.74,2l-11,12.88c-.79.92-.5,1.33.64.93L63.07,578A1.3,1.3,0,0,1,65,579.45l-1.1,13.8a42.28,42.28,0,0,0-.06,4.36l2.63,53.28c.06,1.2.22,1.21.37,0L70.63,619c.15-1.2.44-1.2.65,0L74,634.11a24.12,24.12,0,0,1,.28,4.33l-3.16,67.24c-.06,1.2.19,1.25.56.1l13.69-42.59c.36-1.14.65-1.09.62.11l-1.46,72c0,1.2.06,1.21.2,0L98.92,607.72c.13-1.19.34-1.19.46,0l5.38,52c.13,1.2.33,1.2.45,0L113,584.24a2,2,0,0,1,2.37-1.73l17.49,3.61c1.18.24,1.85-.5,1.48-1.64l-1.73-5.43a1.44,1.44,0,0,1,1.53-2l15.13.59c1.2.05,1.4-.5.44-1.23l-9.26-6.92c-1-.72-.77-1.27.44-1.22l24.39,1C166.52,569.27,166.74,568.7,165.8,567.94Z"/><path d="M145.71,538.91a7.33,7.33,0,0,0,7.6-7l.61-15.45a61.75,61.75,0,0,0-1.46-14.34l-6.41-25.86A58.44,58.44,0,0,1,144.71,462l18.56-335.14a71,71,0,0,0-1-14.41L155.8,78.92a128.38,128.38,0,0,0-3.72-14l-16-47a22.94,22.94,0,0,0-8.62-10.62l-2.82-1.67a16,16,0,0,0-13-.79l-1.35.59a25.63,25.63,0,0,0-10.27,9.29L89.24,33.84c-2,3.5-4.91,9.35-6.55,13L69.44,76.5a65,65,0,0,0-4.07,13.85l-6.9,44.89c-.6,4-1.31,10.47-1.56,14.46L37.54,457.77a142.52,142.52,0,0,1-1.81,14.41L25.36,527a6.12,6.12,0,0,0,6,7.43l7.75.31,102.11,4ZM30.51,524.65,40.14,471c.71-3.94,1.49-10.44,1.73-14.43L60.45,154c.25-4,.92-10.5,1.5-14.46l6.42-43.89a69.48,69.48,0,0,1,3.87-13.92L84.37,52.85c1.55-3.7,4.36-9.61,6.23-13.16l9.8-18.51a26,26,0,0,1,7.44-8c.49-1,1.94-1.63,3.6-2a15.49,15.49,0,0,1,10.21.14c2,.3,4.08,1,5.15,2.74a1.59,1.59,0,0,1,.23.58,23.6,23.6,0,0,1,6.69,9.58L148.2,70.06a137,137,0,0,1,3.48,14.11l5.83,32.61a74.94,74.94,0,0,1,.89,14.43L140.5,460.42c-.06,1.17-.06,2.54,0,4a4.85,4.85,0,0,1,.32,1.1,36.18,36.18,0,0,1,.47,7c.14.82.28,1.59.44,2.28l5.76,25.09a66.08,66.08,0,0,1,1.34,14.37l-.59,14.94a7.32,7.32,0,0,1-7.6,7l-2.57-.1c-.23.68-.6,1.07-1.09,1.05s-.88-.44-1.12-1.13l-19-.75a1.6,1.6,0,0,1-1.38.32,1.88,1.88,0,0,1-.71-.4l-33.84-1.32a2.28,2.28,0,0,1-1.86,1,2.46,2.46,0,0,1-1.83-1.16L44.9,532.43c-.2.67-.45,1.07-.73,1.06s-.5-.43-.65-1.12l-7-.27A6.2,6.2,0,0,1,30.51,524.65Z"/><path class="cls-2" d="M117.37,10.9c1.15.16,2.72.19,4.28.42a15.49,15.49,0,0,0-10.21-.14A19.42,19.42,0,0,1,117.37,10.9Z"/><path class="cls-2" d="M43.49,526.2l.75-7c.43-4,.87-4,1,0l.19,7a21.87,21.87,0,0,1-.52,6.16l32.32,1.26a10.16,10.16,0,0,1-1.34-6.24l3.6-58.13c.25-4,.57-4,.73,0l2.2,58.39a9.64,9.64,0,0,1-1.5,6.11l33.84,1.32c-1.34-1.12-2-4.27-1.56-7.67l7.31-53.67c.54-4,.85-3.94.69.06L119,529.13c-.11,2.92-1,5.25-2.17,6.1l19,.75a8.82,8.82,0,0,1-.05-4.3c.58-2.94,1.57-2.9,2.21.09a8.84,8.84,0,0,1,0,4.29l2.57.1a7.32,7.32,0,0,0,7.6-7l.59-14.94a66.08,66.08,0,0,0-1.34-14.37l-5.76-25.09c-.16-.69-.3-1.46-.44-2.28a49.58,49.58,0,0,1-.29,5s-4.58,39.93-4.77,42c0,.07,0,.1,0,.08a.17.17,0,0,0,0-.08c.15-2.27,3.15-51.51,3.15-51.51.19-3.22.65-4.57,1.12-3.59-.06-1.47-.06-2.84,0-4l17.9-329.21a74.94,74.94,0,0,0-.89-14.43l-5.83-32.61a137,137,0,0,0-3.48-14.11L133.72,24.22A23.6,23.6,0,0,0,127,14.64c.41,2.39-7.87,1.26-9.72,1.12S107.69,17,107.67,14a1.73,1.73,0,0,1,.17-.79,26,26,0,0,0-7.44,8L90.6,39.69c-1.87,3.55-4.68,9.46-6.23,13.16L72.24,81.69a69.48,69.48,0,0,0-3.87,13.92L62,139.5c-.58,4-1.25,10.47-1.5,14.46L41.87,456.57c-.24,4-1,10.49-1.73,14.43l-9.63,53.65a6.2,6.2,0,0,0,6,7.45l7,.27A22,22,0,0,1,43.49,526.2ZM73.43,79.46c.65-1.18,3-1.25,5.27-.16a35.28,35.28,0,0,0,9.79,2.57c3.13.32,9,.82,13,1.1,0,0,16.06,1.13,16.09.4s4.45,0,4.45,0a144.24,144.24,0,0,0,14.52,1.47l1.47.06c4,.15,8.65-.32,10.29-1.06s3.1-.35,3.26.86-2.07,2.26-4.94,2.35-8.52,0-12.54-.12l-5.76-.23-14.62-.57-10.13-.39c-4-.16-10.56-.81-14.53-1.45l-9.57-1.53C75.5,82.12,72.78,80.64,73.43,79.46ZM43.26,463.9c.55-3.78,1.06-3.6,1.14.4L45.07,500c.07,4-.13,4-.45,0l-1.78-22A75.49,75.49,0,0,1,43.26,463.9Z"/><path class="cls-3" d="M117.31,15.76c1.85.14,10.13,1.27,9.72-1.12a1.59,1.59,0,0,0-.23-.58c-1.07-1.78-3.11-2.44-5.15-2.74-1.56-.23-3.13-.26-4.28-.42a19.42,19.42,0,0,0-5.93.28c-1.66.35-3.11,1-3.6,2a1.73,1.73,0,0,0-.17.79C107.69,17,115.33,15.6,117.31,15.76Z"/><path class="cls-3" d="M79.47,82.76,89,84.29c4,.64,10.51,1.29,14.53,1.45l10.13.39,14.62.57,5.76.23c4,.15,9.66.21,12.54.12s5.09-1.15,4.94-2.35-1.62-1.6-3.26-.86S142,85.05,138,84.9l-1.47-.06A144.24,144.24,0,0,1,122,83.37s-4.42-.73-4.45,0-16.09-.4-16.09-.4c-4-.28-9.86-.78-13-1.1A35.28,35.28,0,0,1,78.7,79.3c-2.24-1.09-4.62-1-5.27.16S75.5,82.12,79.47,82.76Z"/><path class="cls-3" d="M45.07,500,44.4,464.3c-.08-4-.59-4.18-1.14-.4A75.49,75.49,0,0,0,42.84,478l1.78,22C44.94,504.05,45.14,504,45.07,500Z"/><path class="cls-3" d="M45.42,526.27l-.19-7c-.12-4-.56-4-1,0l-.75,7a22,22,0,0,0,0,6.17c.15.69.37,1.11.65,1.12s.53-.39.73-1.06A21.87,21.87,0,0,0,45.42,526.27Z"/><path class="cls-3" d="M82.41,527.72l-2.2-58.39c-.16-4-.48-4-.73,0l-3.6,58.13a10.16,10.16,0,0,0,1.34,6.24,2.46,2.46,0,0,0,1.83,1.16,2.28,2.28,0,0,0,1.86-1A9.64,9.64,0,0,0,82.41,527.72Z"/><path class="cls-3" d="M119,529.13l2.18-55.26c.16-4-.15-4-.69-.06l-7.31,53.67c-.47,3.4.22,6.55,1.56,7.67a1.88,1.88,0,0,0,.71.4,1.6,1.6,0,0,0,1.38-.32C118,534.38,118.9,532.05,119,529.13Z"/><path class="cls-3" d="M139.38,468s-3,49.24-3.15,51.51c.19-2.07,4.77-42,4.77-42a49.58,49.58,0,0,0,.29-5,36.18,36.18,0,0,0-.47-7,4.85,4.85,0,0,0-.32-1.1C140,463.45,139.57,464.8,139.38,468Z"/><path class="cls-3" d="M136.23,519.53a.17.17,0,0,1,0,.08S136.23,519.6,136.23,519.53Z"/><path class="cls-3" d="M138,531.77c-.64-3-1.63-3-2.21-.09a8.82,8.82,0,0,0,.05,4.3c.24.69.62,1.11,1.12,1.13s.86-.37,1.09-1.05A8.84,8.84,0,0,0,138,531.77Z"/><rect class="cls-4" x="123.95" y="140.64" width="10.97" height="7.28" rx="3.64" transform="translate(5.73 -4.94) rotate(2.24)"/><rect class="cls-4" x="137.11" y="141.11" width="8.78" height="7.28" rx="3.64" transform="translate(5.76 -5.41) rotate(2.24)"/><rect class="cls-4" x="148.08" y="141.51" width="7.31" height="7.28" rx="3.64" transform="translate(5.78 -5.81) rotate(2.24)"/><rect class="cls-4" x="122.22" y="166.06" width="10.97" height="7.28" rx="3.64" transform="translate(6.72 -4.85) rotate(2.24)"/><rect class="cls-4" x="135.38" y="166.53" width="8.78" height="7.28" rx="3.64" transform="translate(6.75 -5.32) rotate(2.24)"/><rect class="cls-4" x="146.34" y="166.93" width="7.31" height="7.28" rx="3.64" transform="translate(6.77 -5.72) rotate(2.24)"/><path class="cls-5" d="M80.8,332.05a4.18,4.18,0,0,1-.51-.1A3.06,3.06,0,0,0,80.8,332.05Z"/><path class="cls-5" d="M106.74,384.81c-.6,4.46-1.57,9.32-4.75,12.74-3,3.27-7.87,3.9-12.14,3.39-4.78-.57-6.88-5.39-8.61-9.35-2-4.55,0-9-1.06-13.67S72,375,73.06,379.57c.71,3.19-.56,6.48-.09,9.73.49,3.44,2.18,6.65,3.84,9.65,3.1,5.62,7.22,9.05,13.85,9.33,6,.26,12-1,16.3-5.38,4.69-4.84,6.22-11.35,7.09-17.8C114.67,380.46,107.36,380.2,106.74,384.81Z"/><path class="cls-5" d="M119.82,350.75c-5.93-4.29-13.15-5.16-20.26-5.63l-1.1-.07a3.77,3.77,0,0,0-2.9-.2,39.79,39.79,0,0,1-7.21-1.13c-3.93-1.08-7.38-3.05-11.53-3.25-4.71-.23-5,7-.29,7.27,3.59.17,6.77,2.21,10.22,3.08a44.2,44.2,0,0,0,5.94,1,67.13,67.13,0,0,0-1,12.52q-8-1.19-15.93-2.24c-4.66-.62-4.92,6.66-.29,7.27q20,2.63,39.78,6.07c4.62.8,4.86-6.48.29-7.27q-8.27-1.44-16.53-2.72a62.44,62.44,0,0,1,.92-13c5.62.4,11.17,1,15.9,4.44C119.7,359.65,123.61,353.5,119.82,350.75Z"/><path class="cls-5" d="M91.22,335.25c4.2,1.23,8.59.89,12.78,1.95,4.42,1.11,8.67,3.45,12.83,5.25,4.31,1.88,6.49-5.08,2.22-6.93s-8.41-4.12-12.83-5.26c-4.2-1.09-8.61-.73-12.78-1.95C88.92,327,86.7,333.93,91.22,335.25Z"/><path class="cls-5" d="M80.39,336.08a4.65,4.65,0,0,0,4.53-1.1,5.07,5.07,0,0,0,1.35-4,7.33,7.33,0,0,0-1.14-3.88,4.74,4.74,0,0,0-.48-.59A3.77,3.77,0,0,0,83.37,325a4,4,0,0,0-5.07.61,7.25,7.25,0,0,0-1.67,3.84C76.15,332.21,77.53,335.3,80.39,336.08Zm-.1-4.13a4.18,4.18,0,0,0,.51.1A3.06,3.06,0,0,1,80.29,332Z"/><path class="cls-5" d="M121.1,302.71c-13.38-2.47-25.22-7.9-37.4-13.71-4.21-2-8.18,4.11-3.94,6.13A242.86,242.86,0,0,0,104,305.61c-1.91.51-3.82,1-5.72,1.5-6.71,1.68-13.38,3.49-19.52,6.74-3.49,1.86-1.78,6.29,1.57,6.85,6.85,1.14,14.21,1.7,20.86,3.72,6.23,1.9,11,5.84,17.93,4.5,4.61-.9,3-8-1.67-7.09-3.47.68-6.54-1.14-9.58-2.54a34.9,34.9,0,0,0-8.15-2.67q-2.67-.51-5.34-1c1.84-.52,3.7-1,5.57-1.46,6.47-1.62,13.25-4,19.93-4.39C123.6,309.61,125.47,303.52,121.1,302.71Z"/><path class="cls-5" d="M122,290.76c-4.81-1.79-9.61-3.61-14.45-5.34a24.41,24.41,0,0,0,.33-7.14c-.14-2-.63-4.6-.38-6.72a4.19,4.19,0,0,0,.68-1.35,47.06,47.06,0,0,1,12.67,2c4.51,1.35,6.73-5.59,2.22-6.93a53.89,53.89,0,0,0-24.73-1.47,53.12,53.12,0,0,0-11.62,3.5c-3.1,1.32-8.12,3.17-9.37,6.63s2.38,6.63,4.56,9c2.89,3.07,6.19,3.94,10.12,5.1,9.41,2.77,18.57,6.33,27.75,9.75C124.24,299.34,126.44,292.39,122,290.76Zm-36.58-14.6a3.83,3.83,0,0,0,.5-.42c.69-.37,1.39-.74,2.09-1.08a42.39,42.39,0,0,1,4.57-1.91,46.14,46.14,0,0,1,7.78-1.95c-.19,4,1,8.34.25,12.26C95.5,281.58,88.65,280.58,85.46,276.16Z"/><path class="cls-6" d="M43.86,533.57c30.29,4.48,62.89-1.12,94,3.69-4.75,3.06-6.62,6-12.29,8.66s-13,3.08-18.59,8.2-11,6.32-18.79,5.23-49.36-14-44.91-22.85S46.63,534.72,43.86,533.57Z"/></svg>