<svg id="Layer_1" data-name="Layer 1" xmlns="http://www.w3.org/2000/svg" viewBox="0 0 72 72"><defs><style>.cls-1{fill:#0288d1;}</style></defs><path class="cls-1" d="M62,0H10A10,10,0,0,0,0,10V62A10,10,0,0,0,10,72H62A10,10,0,0,0,72,62V10A10,10,0,0,0,62,0ZM22,60H12V26H22ZM17,22h-.06A4.78,4.78,0,0,1,12,17a4.81,4.81,0,0,1,5-5,4.8,4.8,0,0,1,5,5A4.82,4.82,0,0,1,17,22ZM50,60V41.8c0-4.39-2.45-7.39-6.38-7.39a5.73,5.73,0,0,0-5.42,4A14.3,14.3,0,0,0,38,42V60H28V26H38v5.23C39.44,29,41.7,26,47.48,26,54.63,26,60,30.5,60,40.55V60Z"/></svg>