<svg id="Layer_1" data-name="Layer 1" xmlns="http://www.w3.org/2000/svg" xmlns:xlink="http://www.w3.org/1999/xlink" viewBox="0 0 105.54 81.76"><defs><style>.cls-1{fill:none;}.cls-1,.cls-10,.cls-11,.cls-12,.cls-13,.cls-16,.cls-3,.cls-4,.cls-5,.cls-7,.cls-8,.cls-9{stroke:#1d1d1b;stroke-miterlimit:10;}.cls-2{isolation:isolate;}.cls-3{fill:#7e6b42;}.cls-4{fill:#d69b3d;}.cls-5{fill:#ad915a;}.cls-6{clip-path:url(#clip-path);}.cls-7{fill:#aa8849;}.cls-8{fill:#846f45;}.cls-9{fill:#877246;}.cls-10{fill:#897448;}.cls-11{fill:#8c7649;}.cls-12{fill:#8f784b;}.cls-13{fill:#917b4c;}.cls-14{clip-path:url(#clip-path-2);}.cls-15{clip-path:url(#clip-path-3);}.cls-16{fill:#977f4f;}.cls-17{clip-path:url(#clip-path-4);}.cls-18{clip-path:url(#clip-path-5);}</style><clipPath id="clip-path"><path class="cls-1" d="M81.93,15.25l8.56,8.68a8.23,8.23,0,0,0-5.39-2.16q-.36,0-.72,0c-4.57,0-8.37,3.61-9.08,10L66.75,23.1c.71-6.44,4.51-10,9.08-10l.72,0A8.13,8.13,0,0,1,81.93,15.25Z"/></clipPath><clipPath id="clip-path-2"><path class="cls-1" d="M80.14,44.17l8.55,8.69c-2-2.08-5.74-3.13-11.46-3.59l-8.55-8.68C74.4,41.05,78.09,42.09,80.14,44.17Z"/></clipPath><clipPath id="clip-path-3"><path class="cls-1" d="M73.74,68.19l-8.55-8.68c-1.87-1.9-2.6-4.91-2.13-9.18L71.61,59C71.14,63.28,71.87,66.29,73.74,68.19Z"/></clipPath><clipPath id="clip-path-4"><path class="cls-1" d="M91.79,8.86l8.55,8.68A16.17,16.17,0,0,1,104.93,31c-.65,5.9-3.83,11.48-9.25,14l-8.55-8.69c5.42-2.53,8.6-8.12,9.25-14A16.16,16.16,0,0,0,91.79,8.86Z"/></clipPath><clipPath id="clip-path-5"><path class="cls-1" d="M91.09,39.19l8.56,8.68c3.19,3.24,4.63,7.89,3.94,14C102.25,74.08,93.26,81.26,81,81.26c-.86,0-1.74,0-2.63-.11-6.07-.49-10.82-2.53-14.07-5.83l-8.55-8.68c3.25,3.3,8,5.34,14.07,5.83.89.07,1.77.1,2.63.1C84.71,72.57,93.7,65.4,95,53.2,95.72,47.08,94.28,42.43,91.09,39.19Z"/></clipPath></defs><g class="cls-2"><polygon class="cls-3" points="14.54 27.14 23.09 35.82 14.57 35.14 6.02 26.46 14.54 27.14"/><polygon class="cls-4" points="29.27 1.18 37.82 9.86 33.32 28.23 24.77 19.54 29.27 1.18"/><polygon class="cls-3" points="9.81 46.66 18.36 55.35 9.85 54.67 1.3 45.99 9.81 46.66"/><polygon class="cls-4" points="22.87 27.8 31.42 36.49 28.59 47.75 20.04 39.07 22.87 27.8"/><polygon class="cls-3" points="31.48 28.5 40.03 37.18 31.42 36.49 22.87 27.8 31.48 28.5"/><polygon class="cls-4" points="46.3 2.54 54.86 11.23 50.36 29.58 41.81 20.9 46.3 2.54"/><polygon class="cls-3" points="26.76 48.02 35.31 56.7 26.69 56.02 18.14 47.34 26.76 48.02"/><polygon class="cls-4" points="39.81 29.16 48.36 37.84 45.63 49.12 37.08 40.43 39.81 29.16"/><polygon class="cls-4" points="50.43 21.59 58.98 30.27 56.88 38.52 48.33 29.84 50.43 21.59"/><polygon class="cls-3" points="48.33 29.84 56.88 38.52 48.36 37.84 39.81 29.16 48.33 29.84"/><polygon class="cls-3" points="13.74 65.7 22.29 74.39 13.96 73.72 5.41 65.04 13.74 65.7"/><polygon class="cls-4" points="18.14 47.34 26.69 56.02 22.29 74.39 13.74 65.7 18.14 47.34"/><polygon class="cls-3" points="43.8 49.39 52.35 58.07 43.63 57.38 35.08 48.7 43.8 49.39"/><polygon class="cls-4" points="45.7 41.13 54.25 49.81 52.35 58.07 43.8 49.39 45.7 41.13"/><polygon class="cls-4" points="35.08 48.7 43.63 57.38 39.13 75.73 30.58 67.05 35.08 48.7"/><path class="cls-5" d="M48.33,29.84l-8.52-.68L37.08,40.43l8.62.7-1.9,8.26-8.72-.7-4.5,18.36-8.52-.68L26.76,48l-8.62-.68L13.74,65.7,5.41,65l4.4-18.37L1.3,46l1.8-8.28,8.71.7,2.73-11.27L6,26.46l1.9-8.26,8.62.68L21.13.53l8.14.65-4.5,18.36,8.71.7,4.4-18.37,8.43.67L41.81,20.9l8.62.69ZM28.76,39.77,31.48,28.5l-8.61-.7L20,39.07l8.72.7"/><polygon class="cls-3" points="30.58 67.05 39.13 75.73 30.61 75.05 22.06 66.37 30.58 67.05"/></g><g class="cls-2"><polygon class="cls-3" points="66.75 23.1 75.3 31.78 63.46 30.83 54.91 22.15 66.75 23.1"/><g class="cls-2"><g class="cls-6"><g class="cls-2"><path class="cls-7" d="M81.93,15.25l8.56,8.68a8.23,8.23,0,0,0-5.39-2.16q-.36,0-.72,0a8,8,0,0,0-5.19,1.86l-8.55-8.68a8,8,0,0,1,5.19-1.86l.72,0a8.13,8.13,0,0,1,5.38,2.16"/><path class="cls-8" d="M70.64,14.92l8.55,8.68a9.11,9.11,0,0,0-1,1l-8.55-8.68a9.11,9.11,0,0,1,1-1"/><path class="cls-9" d="M69.64,15.89l8.55,8.68a8.74,8.74,0,0,0-.78,1L68.86,16.9a8.74,8.74,0,0,1,.78-1"/><path class="cls-10" d="M68.86,16.9l8.55,8.68a9.89,9.89,0,0,0-.67,1.15l-8.55-8.68a9.89,9.89,0,0,1,.67-1.15"/><path class="cls-11" d="M68.19,18.05l8.55,8.68a11,11,0,0,0-.61,1.39l-8.55-8.69a10.85,10.85,0,0,1,.61-1.38"/><path class="cls-12" d="M67.58,19.43l8.55,8.69a15.19,15.19,0,0,0-.52,1.8l-8.55-8.68a15.36,15.36,0,0,1,.52-1.81"/><path class="cls-13" d="M67.06,21.24l8.55,8.68a17.17,17.17,0,0,0-.31,1.86L66.75,23.1a17.17,17.17,0,0,1,.31-1.86"/></g></g><path class="cls-1" d="M81.93,15.25l8.56,8.68a8.23,8.23,0,0,0-5.39-2.16q-.36,0-.72,0c-4.57,0-8.37,3.61-9.08,10L66.75,23.1c.71-6.44,4.51-10,9.08-10l.72,0A8.13,8.13,0,0,1,81.93,15.25Z"/></g><g class="cls-2"><g class="cls-14"><g class="cls-2"><path class="cls-7" d="M80.14,44.17l8.55,8.69c-2-2.08-5.74-3.13-11.46-3.59l-8.55-8.68c5.72.46,9.41,1.5,11.46,3.58"/></g></g><path class="cls-1" d="M80.14,44.17l8.55,8.69c-2-2.08-5.74-3.13-11.46-3.59l-8.55-8.68C74.4,41.05,78.09,42.09,80.14,44.17Z"/></g><g class="cls-2"><g class="cls-15"><g class="cls-2"><path class="cls-13" d="M63.06,50.33,71.61,59c0,.36-.08.72-.1,1.07L63,51.41c0-.35.06-.71.1-1.08"/><path class="cls-4" d="M63,51.41l8.55,8.68a15.49,15.49,0,0,0,.21,4.07l-8.55-8.68A15.52,15.52,0,0,1,63,51.41"/><path class="cls-16" d="M63.17,55.48l8.55,8.68a9.67,9.67,0,0,0,.68,2.09l-8.55-8.68a9.85,9.85,0,0,1-.68-2.09"/><path class="cls-4" d="M63.85,57.57l8.55,8.68a7.48,7.48,0,0,0,1,1.58l-8.55-8.68a7.74,7.74,0,0,1-1-1.58"/><path class="cls-13" d="M64.86,59.15l8.55,8.68.33.36-8.55-8.68-.33-.36"/></g></g><path class="cls-1" d="M73.74,68.19l-8.55-8.68c-1.87-1.9-2.6-4.91-2.13-9.18L71.61,59C71.14,63.28,71.87,66.29,73.74,68.19Z"/></g><g class="cls-2"><g class="cls-17"><g class="cls-2"><path class="cls-13" d="M91.79,8.86l8.55,8.68c.29.29.56.59.83.9L92.61,9.75c-.26-.3-.53-.6-.82-.89"/><path class="cls-4" d="M92.61,9.75l8.56,8.69a16.4,16.4,0,0,1,2.37,3.68L95,13.44a16.16,16.16,0,0,0-2.38-3.69"/><path class="cls-16" d="M95,13.44l8.55,8.68a15.39,15.39,0,0,1,1.16,3.49l-8.55-8.68A15.39,15.39,0,0,0,95,13.44"/><path class="cls-4" d="M96.15,16.93l8.55,8.68a16.74,16.74,0,0,1,.31,4.51l-8.55-8.68a16.74,16.74,0,0,0-.31-4.51"/><path class="cls-13" d="M96.46,21.44,105,30.12c0,.29-.05.57-.08.86a18.36,18.36,0,0,1-.37,2.22L96,24.52a18.36,18.36,0,0,0,.37-2.22c0-.29.06-.57.08-.86"/><path class="cls-12" d="M96,24.52l8.55,8.68a19.24,19.24,0,0,1-.73,2.49L95.28,27A19.24,19.24,0,0,0,96,24.52"/><path class="cls-11" d="M95.28,27l8.55,8.68a17.2,17.2,0,0,1-.91,2.11l-8.55-8.68A17.89,17.89,0,0,0,95.28,27"/><path class="cls-10" d="M94.37,29.12l8.55,8.68a18,18,0,0,1-1.09,1.85L93.28,31a19.08,19.08,0,0,0,1.09-1.85"/><path class="cls-9" d="M93.28,31l8.55,8.68a17.88,17.88,0,0,1-1.31,1.7L92,32.67A17.88,17.88,0,0,0,93.28,31"/><path class="cls-8" d="M92,32.67l8.55,8.68A15.17,15.17,0,0,1,98.79,43l-8.55-8.68A15.17,15.17,0,0,0,92,32.67"/><path class="cls-7" d="M90.24,34.34,98.79,43a14.43,14.43,0,0,1-3.11,2l-8.55-8.69a14.26,14.26,0,0,0,3.11-2"/></g></g><path class="cls-1" d="M91.79,8.86l8.55,8.68A16.17,16.17,0,0,1,104.93,31c-.65,5.9-3.83,11.48-9.25,14l-8.55-8.69c5.42-2.53,8.6-8.12,9.25-14A16.16,16.16,0,0,0,91.79,8.86Z"/></g><g class="cls-2"><g class="cls-18"><g class="cls-2"><path class="cls-13" d="M91.09,39.19l8.56,8.68c.22.23.44.47.65.71L91.75,39.9c-.21-.24-.43-.48-.66-.71"/><path class="cls-4" d="M91.75,39.9l8.55,8.68a13.47,13.47,0,0,1,2,3.05L93.71,43a13.47,13.47,0,0,0-2-3.05"/><path class="cls-16" d="M93.71,43l8.55,8.68a15,15,0,0,1,1.14,3.51l-8.55-8.68A15,15,0,0,0,93.71,43"/><path class="cls-4" d="M94.85,46.46l8.55,8.68a21,21,0,0,1,.31,5.47l-8.55-8.68a21,21,0,0,0-.31-5.47"/><path class="cls-13" d="M95.16,51.93l8.55,8.68c0,.42-.07.84-.12,1.27a24.59,24.59,0,0,1-.46,2.81L94.58,56A24.59,24.59,0,0,0,95,53.2c0-.43.09-.85.12-1.27"/><path class="cls-12" d="M94.58,56l8.55,8.68a22.73,22.73,0,0,1-.85,2.94l-8.55-8.69A23.75,23.75,0,0,0,94.58,56"/><path class="cls-11" d="M93.73,58.94l8.55,8.69a20.52,20.52,0,0,1-1,2.39l-8.55-8.68a20,20,0,0,0,1-2.4"/><path class="cls-10" d="M92.69,61.34,101.24,70A19.2,19.2,0,0,1,100,72.13l-8.55-8.68a19.2,19.2,0,0,0,1.25-2.11"/><path class="cls-9" d="M91.44,63.45,100,72.13a17.9,17.9,0,0,1-1.55,2l-8.55-8.68a17.9,17.9,0,0,0,1.55-2"/><path class="cls-8" d="M89.89,65.46l8.55,8.68a18.71,18.71,0,0,1-2.17,2.1l-8.55-8.68a18.71,18.71,0,0,0,2.17-2.1"/><path class="cls-7" d="M87.72,67.56l8.55,8.68c-3.94,3.26-9.21,5-15.29,5-.86,0-1.74,0-2.63-.11-6.07-.49-10.82-2.53-14.07-5.83l-8.55-8.68c3.25,3.3,8,5.34,14.07,5.83.89.07,1.77.1,2.63.1,6.08,0,11.35-1.76,15.29-5"/></g></g><path class="cls-1" d="M91.09,39.19l8.56,8.68c3.19,3.24,4.63,7.89,3.94,14C102.25,74.08,93.26,81.26,81,81.26c-.86,0-1.74,0-2.63-.11-6.07-.49-10.82-2.53-14.07-5.83l-8.55-8.68c3.25,3.3,8,5.34,14.07,5.83.89.07,1.77.1,2.63.1C84.71,72.57,93.7,65.4,95,53.2,95.72,47.08,94.28,42.43,91.09,39.19Z"/></g><path class="cls-5" d="M76.09,2.83c.69,0,1.38,0,2.09.09,11.26.9,19.36,8.88,18.2,19.38-.65,5.89-3.83,11.48-9.25,14C93,39.36,96,45,95,53.2,93.7,65.4,84.71,72.57,72.43,72.57c-.86,0-1.74,0-2.63-.1-13.51-1.09-20.45-9.86-19-23.11l12.25,1C62.22,57.9,65.18,61.5,71.54,62q.42,0,.84,0c4.91,0,9-3.58,9.66-10.08.85-7.66-2.78-10.52-13.36-11.37l1-8.94c1,.08,2,.12,2.9.12,8.56,0,10.83-3.64,11.31-8,.72-6.48-1.44-10.21-7.32-10.68l-.72,0c-4.57,0-8.37,3.6-9.08,10l-11.84-1C56.2,10.39,64.77,2.83,76.09,2.83Z"/></g></svg>