<svg id="Layer_1" data-name="Layer 1" xmlns="http://www.w3.org/2000/svg" xmlns:xlink="http://www.w3.org/1999/xlink" viewBox="0 0 106.43 81.75"><defs><style>.cls-1{fill:none;}.cls-1,.cls-10,.cls-11,.cls-12,.cls-13,.cls-15,.cls-3,.cls-4,.cls-5,.cls-7,.cls-8,.cls-9{stroke:#1d1d1b;stroke-miterlimit:10;}.cls-2{isolation:isolate;}.cls-3{fill:#7e6b42;}.cls-4{fill:#d69b3d;}.cls-5{fill:#ad915a;}.cls-6{clip-path:url(#clip-path);}.cls-7{fill:#aa8849;}.cls-8{fill:#846f45;}.cls-9{fill:#877246;}.cls-10{fill:#897448;}.cls-11{fill:#8c7649;}.cls-12{fill:#8f784b;}.cls-13{fill:#917b4c;}.cls-14{clip-path:url(#clip-path-2);}.cls-15{fill:#977f4f;}</style><clipPath id="clip-path"><path class="cls-1" d="M83,16.2l8.55,8.68c-1.49-1.51-3.73-2.2-6.28-2.41-.42,0-.84,0-1.25,0-5.1,0-8.63,2.78-9.52,10.88L65.9,24.61c.89-8.09,4.42-10.87,9.52-10.87.41,0,.83,0,1.25,0C79.22,14,81.46,14.69,83,16.2Z"/></clipPath><clipPath id="clip-path-2"><path class="cls-1" d="M92.89,9l8.55,8.68c3.4,3.46,5,8.34,4.34,14.66-1.1,9.92-6.63,15.22-21.63,24-5.39,3.23-9.64,7.65-10.3,11L65.3,58.64c.66-3.32,4.91-7.73,10.3-11,15-8.81,20.53-14.11,21.63-24C97.92,17.33,96.29,12.45,92.89,9Z"/></clipPath></defs><g class="cls-2"><polygon class="cls-3" points="14.54 27.14 23.09 35.82 14.58 35.14 6.03 26.46 14.54 27.14"/><polygon class="cls-4" points="29.27 1.18 37.82 9.86 33.32 28.23 24.77 19.54 29.27 1.18"/><polygon class="cls-3" points="9.82 46.66 18.37 55.35 9.85 54.67 1.3 45.99 9.82 46.66"/><polygon class="cls-4" points="22.87 27.8 31.42 36.49 28.59 47.75 20.04 39.07 22.87 27.8"/><polygon class="cls-3" points="31.49 28.5 40.04 37.18 31.42 36.49 22.87 27.8 31.49 28.5"/><polygon class="cls-4" points="46.3 2.54 54.86 11.23 50.36 29.58 41.81 20.9 46.3 2.54"/><polygon class="cls-3" points="26.76 48.02 35.31 56.7 26.69 56.02 18.14 47.34 26.76 48.02"/><polygon class="cls-4" points="39.81 29.16 48.36 37.84 45.63 49.12 37.08 40.43 39.81 29.16"/><polygon class="cls-4" points="50.43 21.59 58.98 30.27 56.88 38.52 48.33 29.84 50.43 21.59"/><polygon class="cls-3" points="48.33 29.84 56.88 38.52 48.36 37.84 39.81 29.16 48.33 29.84"/><polygon class="cls-3" points="13.74 65.7 22.29 74.39 13.97 73.72 5.42 65.04 13.74 65.7"/><polygon class="cls-4" points="18.14 47.34 26.69 56.02 22.29 74.39 13.74 65.7 18.14 47.34"/><polygon class="cls-3" points="65.9 24.61 74.45 33.3 62.2 32.32 53.65 23.64 65.9 24.61"/><polygon class="cls-3" points="43.8 49.39 52.35 58.07 43.63 57.38 35.08 48.7 43.8 49.39"/><polygon class="cls-4" points="45.7 41.13 54.25 49.81 52.35 58.07 43.8 49.39 45.7 41.13"/><polygon class="cls-4" points="35.08 48.7 43.63 57.38 39.13 75.73 30.58 67.05 35.08 48.7"/><polygon class="cls-3" points="30.58 67.05 39.13 75.73 30.62 75.05 22.07 66.37 30.58 67.05"/><path class="cls-5" d="M48.33,29.84l-8.52-.68L37.08,40.43l8.62.7-1.9,8.26-8.72-.7-4.5,18.36-8.51-.68L26.76,48l-8.62-.68L13.74,65.7,5.42,65l4.4-18.37L1.3,46l1.8-8.28,8.72.7,2.72-11.27L6,26.46l1.9-8.26,8.61.68L21.13.53l8.14.65-4.5,18.36,8.72.7,4.4-18.37,8.42.67L41.81,20.9l8.62.69ZM28.76,39.77,31.49,28.5l-8.62-.7L20,39.07l8.72.7"/><g class="cls-2"><g class="cls-6"><g class="cls-2"><path class="cls-7" d="M83,16.2l8.55,8.68c-1.49-1.51-3.73-2.2-6.28-2.41-.42,0-.84,0-1.25,0a8.64,8.64,0,0,0-5.69,1.8l-8.55-8.68a8.64,8.64,0,0,1,5.69-1.8c.41,0,.83,0,1.25,0,2.55.21,4.79.9,6.28,2.41"/><path class="cls-8" d="M69.73,15.54l8.55,8.68a7.45,7.45,0,0,0-.86.83l-8.55-8.68a7.45,7.45,0,0,1,.86-.83"/><path class="cls-9" d="M68.87,16.37l8.55,8.68a8.89,8.89,0,0,0-.68.88l-8.55-8.68a8.89,8.89,0,0,1,.68-.88"/><path class="cls-10" d="M68.19,17.25l8.55,8.68A9.84,9.84,0,0,0,76.12,27l-8.55-8.68a9.84,9.84,0,0,1,.62-1.06"/><path class="cls-11" d="M67.57,18.31,76.12,27a14.22,14.22,0,0,0-.61,1.41L67,19.72a13.27,13.27,0,0,1,.61-1.41"/><path class="cls-12" d="M67,19.72l8.55,8.68a18,18,0,0,0-.62,2.16l-8.55-8.68A17.47,17.47,0,0,1,67,19.72"/><path class="cls-13" d="M66.34,21.88l8.55,8.68a27.14,27.14,0,0,0-.44,2.74L65.9,24.61a26.93,26.93,0,0,1,.44-2.73"/></g></g><path class="cls-1" d="M83,16.2l8.55,8.68c-1.49-1.51-3.73-2.2-6.28-2.41-.42,0-.84,0-1.25,0-5.1,0-8.63,2.78-9.52,10.88L65.9,24.61c.89-8.09,4.42-10.87,9.52-10.87.41,0,.83,0,1.25,0C79.22,14,81.46,14.69,83,16.2Z"/></g><g class="cls-2"><g class="cls-14"><g class="cls-2"><path class="cls-13" d="M92.89,9l8.55,8.68c.25.26.5.52.73.8L93.62,9.8c-.24-.28-.48-.54-.73-.8"/><path class="cls-4" d="M93.62,9.8l8.55,8.68a14.66,14.66,0,0,1,2.21,3.46l-8.55-8.68A14.46,14.46,0,0,0,93.62,9.8"/><path class="cls-15" d="M95.83,13.26l8.55,8.68a15.74,15.74,0,0,1,1.17,3.61L97,16.86a15.82,15.82,0,0,0-1.17-3.6"/><path class="cls-4" d="M97,16.86l8.55,8.69a20.92,20.92,0,0,1,.33,5.57l-8.55-8.68A21,21,0,0,0,97,16.86"/><path class="cls-13" d="M97.33,22.44l8.55,8.68c0,.4-.06.81-.1,1.22a26.51,26.51,0,0,1-.47,2.83l-8.55-8.68a26.94,26.94,0,0,0,.47-2.83c0-.42.08-.82.1-1.22"/><path class="cls-12" d="M96.76,26.49l8.55,8.68a19.84,19.84,0,0,1-.76,2.62L96,29.11a19.84,19.84,0,0,0,.76-2.62"/><path class="cls-11" d="M96,29.11l8.55,8.68a20.11,20.11,0,0,1-.92,2.13l-8.55-8.69A20,20,0,0,0,96,29.11"/><path class="cls-10" d="M95.08,31.23l8.55,8.69a20.48,20.48,0,0,1-1.22,2l-8.55-8.68a19.55,19.55,0,0,0,1.22-2.06"/><path class="cls-9" d="M93.86,33.29,102.41,42a21.64,21.64,0,0,1-1.83,2.35L92,35.64a23,23,0,0,0,1.83-2.35"/><path class="cls-8" d="M92,35.64l8.55,8.68a34,34,0,0,1-3.74,3.57L88.29,39.2A33.92,33.92,0,0,0,92,35.64"/><path class="cls-7" d="M88.29,39.2l8.55,8.69a99.19,99.19,0,0,1-12.69,8.47,35.37,35.37,0,0,0-4.39,3.1l-8.55-8.69a36.41,36.41,0,0,1,4.39-3.09A98.07,98.07,0,0,0,88.29,39.2"/><path class="cls-8" d="M71.21,50.77l8.55,8.69a26.09,26.09,0,0,0-3.06,2.93l-8.55-8.68a27,27,0,0,1,3.06-2.94"/><path class="cls-9" d="M68.15,53.71l8.55,8.68a17,17,0,0,0-1.42,1.82l-8.56-8.68a18.6,18.6,0,0,1,1.43-1.82"/><path class="cls-10" d="M66.72,55.53l8.56,8.68a12.15,12.15,0,0,0-.75,1.25L66,56.78a12.76,12.76,0,0,1,.74-1.25"/><path class="cls-11" d="M66,56.78l8.55,8.68a7.19,7.19,0,0,0-.42,1l-8.55-8.69a7.08,7.08,0,0,1,.42-.95"/><path class="cls-12" d="M65.56,57.73l8.55,8.69a4.6,4.6,0,0,0-.23.78l-8.55-8.68a5,5,0,0,1,.23-.79"/><path class="cls-13" d="M65.33,58.52l8.55,8.68,0,.12L65.3,58.64l0-.12"/></g></g><path class="cls-1" d="M92.89,9l8.55,8.68c3.4,3.46,5,8.34,4.34,14.66-1.1,9.92-6.63,15.22-21.63,24-5.39,3.23-9.64,7.65-10.3,11L65.3,58.64c.66-3.32,4.91-7.73,10.3-11,15-8.81,20.53-14.11,21.63-24C97.92,17.33,96.29,12.45,92.89,9Z"/></g><polygon class="cls-3" points="92.08 71.97 100.64 80.65 56.37 77.12 47.81 68.43 92.08 71.97"/><polygon class="cls-4" points="93.31 60.88 101.86 69.56 100.64 80.65 92.08 71.97 93.31 60.88"/><path class="cls-5" d="M74.93,2.75c.77,0,1.56,0,2.36.1,13.12,1,21.36,8,19.94,20.81-1.1,9.91-6.63,15.21-21.63,24-5.39,3.23-9.64,7.64-10.3,11l28,2.24L92.09,72,47.82,68.43C49.25,56.36,53,48.24,71,37.6c10-5.93,13.16-9,13.77-14.55.72-6.57-3.08-8.86-8.08-9.26-.42,0-.84,0-1.25,0-5.1,0-8.63,2.78-9.52,10.87l-12.25-1C55.12,10.45,62.94,2.75,74.93,2.75Z"/></g></svg>