<svg id="Layer_1" data-name="Layer 1" xmlns="http://www.w3.org/2000/svg" viewBox="0 0 104.9 81.26"><defs><style>.cls-1{isolation:isolate;}.cls-2{fill:#7e6b42;}.cls-2,.cls-3,.cls-4,.cls-5{stroke:#1d1d1b;stroke-miterlimit:10;}.cls-3{fill:#d69b3d;}.cls-4{fill:#ad915a;}.cls-5{fill:#8a7548;}</style></defs><g class="cls-1"><polygon class="cls-2" points="14.54 27.14 23.09 35.82 14.57 35.14 6.02 26.46 14.54 27.14"/><polygon class="cls-3" points="29.27 1.18 37.82 9.86 33.31 28.23 24.76 19.54 29.27 1.18"/><polygon class="cls-2" points="9.81 46.67 18.36 55.36 9.85 54.67 1.3 45.99 9.81 46.67"/><polygon class="cls-3" points="22.87 27.8 31.42 36.49 28.59 47.75 20.04 39.07 22.87 27.8"/><polygon class="cls-2" points="31.48 28.5 40.03 37.18 31.42 36.49 22.87 27.8 31.48 28.5"/><polygon class="cls-3" points="46.31 2.54 54.86 11.23 50.36 29.59 41.81 20.91 46.31 2.54"/><polygon class="cls-2" points="26.76 48.03 35.31 56.71 26.69 56.02 18.14 47.34 26.76 48.03"/><polygon class="cls-3" points="39.81 29.16 48.36 37.84 45.63 49.12 37.08 40.43 39.81 29.16"/><polygon class="cls-2" points="48.33 29.84 56.88 38.52 48.36 37.84 39.81 29.16 48.33 29.84"/><polygon class="cls-3" points="50.43 21.59 58.98 30.27 56.88 38.52 48.33 29.84 50.43 21.59"/><polygon class="cls-3" points="18.14 47.34 26.69 56.02 22.29 74.39 13.74 65.7 18.14 47.34"/><polygon class="cls-2" points="13.74 65.7 22.29 74.39 13.96 73.72 5.41 65.04 13.74 65.7"/><polygon class="cls-3" points="45.7 41.13 54.25 49.81 52.35 58.07 43.8 49.39 45.7 41.13"/><polygon class="cls-2" points="43.8 49.39 52.35 58.07 43.63 57.38 35.08 48.7 43.8 49.39"/><polygon class="cls-3" points="35.08 48.7 43.63 57.38 39.13 75.73 30.59 67.05 35.08 48.7"/><polygon class="cls-2" points="30.59 67.05 39.13 75.73 30.61 75.05 22.06 66.37 30.59 67.05"/><path class="cls-4" d="M48.32,29.84l-8.51-.68L37.08,40.43l8.62.7-1.9,8.26-8.72-.69-4.5,18.35-8.52-.68L26.76,48l-8.62-.69L13.74,65.7,5.41,65l4.4-18.37L1.3,46l1.8-8.28,8.71.7,2.73-11.27L6,26.46l1.9-8.26,8.62.68L21.13.53l8.14.65L24.76,19.54l8.72.7,4.4-18.37,8.43.67-4.5,18.37,8.62.68ZM28.76,39.77,31.48,28.5l-8.61-.7L20,39.07l8.72.7"/><polygon class="cls-5" points="78.58 23.36 87.13 32.04 71.28 53.94 62.73 45.26 78.58 23.36"/><polygon class="cls-2" points="74.66 56.22 83.21 64.9 57.94 62.88 49.39 54.2 74.66 56.22"/><polygon class="cls-3" points="93.02 6.28 101.57 14.97 97.03 56 88.48 47.32 93.02 6.28"/><polygon class="cls-2" points="94.74 57.82 103.29 66.51 95.94 65.92 87.39 57.24 94.74 57.82"/><polygon class="cls-3" points="95.83 47.91 104.38 56.59 103.29 66.51 94.74 57.82 95.83 47.91"/><polygon class="cls-2" points="85.82 71.47 94.37 80.16 81.64 79.14 73.09 70.45 85.82 71.47"/><polygon class="cls-3" points="87.39 57.24 95.94 65.92 94.37 80.16 85.82 71.47 87.39 57.24"/><path class="cls-4" d="M88.48,47.32l7.35.59-1.09,9.91-7.35-.58L85.82,71.47l-12.73-1,1.57-14.23-25.27-2,1.22-11.1,28.11-38L93,6.28Zm-12.43-1,2.53-23L62.73,45.26l13.32,1.07"/></g></svg>