<svg id="Layer_1" data-name="Layer 1" xmlns="http://www.w3.org/2000/svg" viewBox="0 0 90.14 80.3"><defs><style>.cls-1{isolation:isolate;}.cls-2{fill:#7e6b42;}.cls-2,.cls-3,.cls-4{stroke:#1d1d1b;stroke-miterlimit:10;}.cls-3{fill:#d69b3d;}.cls-4{fill:#ad915a;}</style></defs><g class="cls-1"><polygon class="cls-2" points="14.54 27.14 23.09 35.82 14.58 35.14 6.03 26.46 14.54 27.14"/><polygon class="cls-3" points="29.27 1.18 37.82 9.86 33.32 28.23 24.77 19.54 29.27 1.18"/><polygon class="cls-2" points="9.82 46.66 18.37 55.35 9.85 54.67 1.3 45.99 9.82 46.66"/><polygon class="cls-3" points="22.87 27.8 31.42 36.49 28.59 47.75 20.04 39.07 22.87 27.8"/><polygon class="cls-2" points="31.49 28.5 40.04 37.18 31.42 36.49 22.87 27.8 31.49 28.5"/><polygon class="cls-3" points="46.3 2.54 54.86 11.23 50.36 29.58 41.81 20.9 46.3 2.54"/><polygon class="cls-2" points="26.76 48.02 35.31 56.7 26.69 56.02 18.14 47.34 26.76 48.02"/><polygon class="cls-3" points="39.81 29.16 48.36 37.84 45.63 49.12 37.08 40.43 39.81 29.16"/><polygon class="cls-3" points="50.43 21.59 58.98 30.27 56.88 38.52 48.33 29.84 50.43 21.59"/><polygon class="cls-2" points="48.33 29.84 56.88 38.52 48.36 37.84 39.81 29.16 48.33 29.84"/><polygon class="cls-2" points="13.74 65.7 22.29 74.39 13.97 73.72 5.42 65.04 13.74 65.7"/><polygon class="cls-3" points="18.14 47.34 26.69 56.02 22.29 74.39 13.74 65.7 18.14 47.34"/><polygon class="cls-2" points="43.8 49.39 52.35 58.07 43.63 57.38 35.08 48.7 43.8 49.39"/><polygon class="cls-3" points="45.7 41.13 54.25 49.81 52.35 58.07 43.8 49.39 45.7 41.13"/><polygon class="cls-3" points="35.08 48.7 43.63 57.38 39.13 75.73 30.58 67.05 35.08 48.7"/><path class="cls-4" d="M48.33,29.84l-8.52-.68L37.08,40.43l8.62.7-1.9,8.26-8.72-.69-4.5,18.35-8.51-.68L26.76,48l-8.62-.68L13.74,65.7,5.42,65l4.4-18.37L1.3,46l1.8-8.28,8.72.7,2.72-11.27L6,26.46l1.9-8.27,8.61.69L21.14.53l8.13.65-4.5,18.36,8.72.7,4.4-18.37,8.42.67L41.81,20.9l8.62.69ZM28.76,39.77,31.49,28.5l-8.62-.7L20,39.07l8.72.7"/><polygon class="cls-2" points="30.58 67.05 39.13 75.73 30.62 75.05 22.07 66.37 30.58 67.05"/></g><g class="cls-1"><polygon class="cls-2" points="66.12 24.44 74.67 33.12 61.34 32.05 52.79 23.36 66.12 24.44"/><polygon class="cls-2" points="73.87 70.52 82.42 79.2 69.69 78.18 61.14 69.5 73.87 70.52"/><polygon class="cls-3" points="81.07 5.33 89.62 14.01 82.42 79.2 73.87 70.52 81.07 5.33"/><path class="cls-4" d="M70.69,4.49l10.38.84-7.2,65.19-12.73-1,5-45.06L52.79,23.36l1-8.82c1.15.09,2.23.13,3.23.13C65.76,14.67,69.24,11.22,70.69,4.49Z"/></g></svg>