<svg width="16" height="514" viewBox="0 0 16 514" fill="none" xmlns="http://www.w3.org/2000/svg">
<path d="M9 1C9 0.447715 8.55228 2.41411e-08 8 0C7.44772 -2.41411e-08 7 0.447715 7 1L9 1ZM7.29287 513.707C7.6834 514.098 8.31656 514.098 8.70708 513.707L15.071 507.343C15.4616 506.953 15.4616 506.319 15.071 505.929C14.6805 505.538 14.0474 505.538 13.6568 505.929L7.99998 511.586L2.34312 505.929C1.9526 505.538 1.31943 505.538 0.92891 505.929C0.538386 506.319 0.538386 506.953 0.92891 507.343L7.29287 513.707ZM7 1L6.99998 513L8.99998 513L9 1L7 1Z" fill="#0F0F26"/>
</svg>
