<svg width="16" height="425" viewBox="0 0 16 425" fill="none" xmlns="http://www.w3.org/2000/svg">
<path d="M10 1.00236C10.0013 0.450081 9.55465 0.00130846 9.00236 2.80142e-06C8.45008 -0.00130286 8.00131 0.445353 8 0.997636L10 1.00236ZM7.2912 424.705C7.6808 425.097 8.31396 425.098 8.70541 424.709L15.0844 418.36C15.4758 417.97 15.4773 417.337 15.0877 416.946C14.6981 416.554 14.065 416.553 13.6735 416.942L8.00332 422.586L2.35986 416.916C1.97026 416.524 1.33709 416.523 0.945646 416.912C0.5542 417.302 0.552703 417.935 0.942303 418.326L7.2912 424.705ZM8 0.997636L6.99998 423.998L8.99997 424.002L10 1.00236L8 0.997636Z" fill="#0F0F26"/>
</svg>
