<svg xmlns="http://www.w3.org/2000/svg" width="980" height="440" viewBox="0 0 980 440"><defs><style>.cls-1{opacity:0.87;}.cls-2{fill:#c8dced;}.cls-3{fill:#94b9d3;}.cls-4{fill:#999;}.cls-5{fill:#cee4ef;}.cls-6{fill:#fff;}.cls-7{fill:#afcfe2;}</style></defs><g id="Layer_2" data-name="Layer 2"><g class="cls-1"><path class="cls-2" d="M19.76,201.57c13.51-12.78,33.74-19.72,55.31-17.17A73.91,73.91,0,0,1,93,188.83c.14-2.4.34-4.8.63-7.2.23-1.9.51-3.79.82-5.66a74.16,74.16,0,0,0-17.82-4.39C55,169,34.8,176,21.29,188.74l0,0a52.53,52.53,0,0,0-16.46,32,49.93,49.93,0,0,0-.35,6.44A53.19,53.19,0,0,1,19.71,201.6Z"/><path class="cls-3" d="M236.1,75.75c38.18,4.53,70.57,24.4,91,52.27a118.28,118.28,0,0,1,80.12-19c3.76.44,7.46,1.06,11.09,1.83C452.12,47.18,525.57,7.56,605.09,17c82.16,9.74,145.64,68.84,161,141.88a122.11,122.11,0,0,1,21.73.63c53.24,6.31,93.83,46.11,100.8,94.25a77,77,0,0,1,20.6-.32c24.44,2.9,44.69,16.89,55.75,35.95a66.35,66.35,0,0,1,9,34.87c.46-2.09.83-4.23,1.09-6.4a66.16,66.16,0,0,0-8.61-41.29c-11-19.06-31.31-33.05-55.74-35.95a77,77,0,0,0-20.6.32c-7-48.14-47.56-87.94-100.8-94.25a121.2,121.2,0,0,0-21.73-.63c-15.35-73-78.84-132.14-161-141.88-79.52-9.43-153,30.19-186.78,93.88-3.63-.77-7.32-1.39-11.09-1.83a118.2,118.2,0,0,0-80.11,19c-20.45-27.87-52.83-47.74-91-52.27-70.69-8.38-134.49,39-142.49,105.88-.26,2.1-.44,4.2-.57,6.29C105.81,111.72,167.73,67.65,236.1,75.75Z"/><path class="cls-4" d="M94.57,175.1l-.15.87.09,0C94.52,175.7,94.55,175.4,94.57,175.1Z"/><path class="cls-5" d="M63,285.46c25.21,3,48.57-7,61.55-24.12a131.78,131.78,0,0,0,74.18,42.14c18.67,36.45,55.9,63.59,101.35,69a133.14,133.14,0,0,0,83.62-17.33c29.12,43,77.43,73.89,134.87,80.7,45.25,5.37,88.53-5.16,123.66-27a121.13,121.13,0,0,0,30.7,7.78c47.35,5.61,91.24-16.88,113.13-53.7a117.37,117.37,0,0,0,54.64-17.64,74.44,74.44,0,0,0,53.64,32.56c37.78,4.48,72.09-19.14,79.7-53.62a66.35,66.35,0,0,0-9-34.87c-11.06-19.06-31.31-33.05-55.75-35.95a77,77,0,0,0-20.6.32c-7-48.14-47.56-87.94-100.8-94.25a122.11,122.11,0,0,0-21.73-.63c-15.35-73-78.83-132.14-161-141.88-79.52-9.43-153,30.19-186.77,93.88-3.63-.77-7.33-1.39-11.09-1.83a118.28,118.28,0,0,0-80.12,19c-20.44-27.87-52.83-47.74-91-52.27-68.37-8.1-130.29,36-141.53,99.35,0,.3,0,.6-.06.91l-.09,0c-.31,1.87-.59,3.76-.82,5.66-.29,2.4-.49,4.8-.63,7.2a73.91,73.91,0,0,0-17.9-4.43c-21.57-2.55-41.8,4.39-55.31,17.17l-.05,0A53.19,53.19,0,0,0,4.44,227.26C4.66,256.13,29.54,281.5,63,285.46Z"/><path class="cls-6" d="M580.25,160.26c83.53,9.9,145.56,73.84,145.39,146.38A128.5,128.5,0,0,0,728.27,292c9.4-78.48-55.29-150.67-144.48-161.24s-169.12,44.48-178.52,123a126.63,126.63,0,0,0-.9,14.87C421.33,198,496.73,150.36,580.25,160.26Z"/><path class="cls-6" d="M230.38,123.47c41.46,4.91,71.93,39.27,71.44,78.63a74.51,74.51,0,0,0,1.39-8c5.11-42.64-26.64-81.46-70.9-86.7s-84.3,25.06-89.4,67.7a73.53,73.53,0,0,0-.53,8.07C151.2,144.83,188.93,118.56,230.38,123.47Z"/><path class="cls-7" d="M975.1,317.85c-4.54,37.9-40.71,64.77-80.79,60a74.44,74.44,0,0,1-53.64-32.56A117.37,117.37,0,0,1,786,363c-21.89,36.82-65.78,59.31-113.13,53.7a121.13,121.13,0,0,1-30.7-7.78c-35.13,21.8-78.41,32.33-123.66,27-57.44-6.81-105.75-37.74-134.87-80.7a133.14,133.14,0,0,1-83.62,17.33c-45.45-5.39-82.68-32.53-101.35-69a131.78,131.78,0,0,1-74.18-42.14c-13,17.11-36.34,27.11-61.55,24.12C27.07,281.21,1,252.27,4.79,220.82a52.53,52.53,0,0,1,16.46-32l0,0C23.16,187.93,6.52,266,121.56,235c13.81-3.72,57.76,81.81,114.54,19.69,0,0,4.31,132.84,153.2,64.82,0,0,99.7,140.68,245.06,57.9,0,0,88.22,56.56,135.76-36.48,0,0,47.37,14.8,71.53-20.58,0,0,81.06,95.27,118.49-20.38l6.35-23.45A66.16,66.16,0,0,1,975.1,317.85Z"/></g></g></svg>