<svg xmlns="http://www.w3.org/2000/svg" width="740" height="415" viewBox="0 0 740 415"><defs><style>.cls-1{opacity:0.87;}.cls-2{fill:#c8dced;}.cls-3{fill:#94b9d3;}.cls-4{fill:#999;}.cls-5{fill:#cee4ef;}.cls-6{fill:#fff;}.cls-7{fill:#afcfe2;}</style></defs><g id="Layer_2" data-name="Layer 2"><g class="cls-1"><path class="cls-2" d="M11.1,250c9-13.3,23.54-21.94,40-21.94a46,46,0,0,1,13.83,2.13q-.17-3.35-.17-6.73c0-1.78,0-3.55.11-5.32A46.3,46.3,0,0,0,51.06,216c-16.42,0-31,8.64-40,21.94l0,0A56.06,56.06,0,0,0,1.6,269.42a59.36,59.36,0,0,0,.31,6A55.56,55.56,0,0,1,11.07,250Z"/><path class="cls-3" d="M162.13,109.85c29.06,0,55.14,14.84,73,38.37,15.42-16.36,35.91-26.34,58.41-26.34a74.41,74.41,0,0,1,8.48.48C321.65,59.74,373.21,15,433.73,15c62.52,0,115.47,47.71,133.55,113.61a74.44,74.44,0,0,1,16.36-1.81c40.52,0,74.55,32.38,84.11,76.14a48.13,48.13,0,0,1,15.42-2.55c18.6,0,35.05,10.72,45.06,27.15a70.65,70.65,0,0,1,9.93,31.27c.16-2,.24-4,.24-6a71.52,71.52,0,0,0-10.17-37.25c-10-16.43-26.46-27.15-45.06-27.15a48.13,48.13,0,0,0-15.42,2.55c-9.56-43.76-43.59-76.14-84.11-76.14a75,75,0,0,0-16.36,1.81C549.2,50.71,496.25,3,433.73,3,373.21,3,321.65,47.71,302,110.33a74.41,74.41,0,0,0-8.48-.48c-22.5,0-43,10-58.41,26.34-17.85-23.53-43.93-38.37-73-38.37-53.8,0-97.41,50.85-97.41,113.57q0,3,.14,5.89C67.6,157.41,110.1,109.85,162.13,109.85Z"/><path class="cls-4" d="M64.86,217.28l0,.82.06,0Z"/><path class="cls-5" d="M51.06,322.84c19.19,0,35.81-11.81,44-29.06,15.74,17.42,36.48,28.78,59.45,30.84,17.28,31.68,47.66,52.71,82.25,52.71,23.18,0,44.46-9.44,61.18-25.2C323.67,388.68,362.7,412,406.42,412c34.43,0,66-14.48,90.37-38.5a75.47,75.47,0,0,0,23.73,3.83c36,0,67-25.62,80.06-62.08A82.19,82.19,0,0,0,640,292.94c10.12,14.77,25.69,24.24,43.17,24.24,28.76,0,52.38-25.62,55-58.34a70.65,70.65,0,0,0-9.93-31.27c-10-16.43-26.46-27.15-45.06-27.15A48.13,48.13,0,0,0,667.75,203c-9.56-43.76-43.59-76.14-84.11-76.14a74.44,74.44,0,0,0-16.36,1.81C549.2,62.74,496.25,15,433.73,15,373.21,15,321.65,59.74,302,122.36a74.41,74.41,0,0,0-8.48-.48c-22.5,0-43,10-58.41,26.34-17.85-23.53-43.93-38.37-73-38.37-52,0-94.53,47.56-97.27,107.43l0,.84-.06,0c-.07,1.77-.11,3.54-.11,5.32q0,3.39.17,6.73A46,46,0,0,0,51.06,228c-16.42,0-31,8.64-40,21.94l0,0a55.56,55.56,0,0,0-9.16,25.42C4.68,302.1,25.62,322.84,51.06,322.84Z"/><path class="cls-6" d="M428,150.29c63.57,0,115.86,52.35,122.25,119.48q.64-6.82.65-13.85c0-73.64-55-133.33-122.9-133.33s-122.9,59.69-122.9,133.33q0,7,.66,13.85C312.1,202.64,364.4,150.29,428,150.29Z"/><path class="cls-6" d="M162.13,154.62c31.54,0,57.5,28.44,60.67,64.91q.31-3.71.32-7.53c0-40-27.31-72.43-61-72.43s-61,32.43-61,72.43q0,3.83.33,7.53C104.63,183.06,130.58,154.62,162.13,154.62Z"/><path class="cls-7" d="M738.4,252.79c0,35.56-24.72,64.39-55.23,64.39-17.48,0-33-9.47-43.17-24.24a82.19,82.19,0,0,1-39.42,22.31c-13.11,36.46-44,62.08-80.06,62.08a75.47,75.47,0,0,1-23.73-3.83c-24.41,24-55.94,38.5-90.37,38.5-43.72,0-82.75-23.32-108.46-59.87-16.72,15.76-38,25.2-61.18,25.2-34.59,0-65-21-82.25-52.71-23-2.06-43.71-13.42-59.45-30.84-8.21,17.25-24.83,29.06-44,29.06-27.32,0-49.46-23.92-49.46-53.42A56.06,56.06,0,0,1,11.07,238l0,0C12.43,237,7,311,90.5,269.77c10-4.95,50.69,69.35,87.71,5.66,0,0,15.17,122.42,120.78,43.17,0,0,87.46,119.21,189.09,26.69,0,0,71.28,42.65,98.59-48.63,0,0,36.87,8.49,51.82-26.89,0,0,69.39,79.25,87.08-31.84l2.66-22.39A71.52,71.52,0,0,1,738.4,252.79Z"/></g></g></svg>