<svg xmlns="http://www.w3.org/2000/svg" width="273" height="670" viewBox="0 0 273 670"><defs><style>.cls-1{fill:none;}.cls-2{fill:#ddb63a;}.cls-3{fill:#9b403b;}.cls-4{fill:#cbe5f4;}.cls-5{fill:#8bc9e6;}.cls-6{fill:#1d2f3a;}.cls-7{fill:#afc3cf;}.cls-8{fill:#00234a;}</style></defs><g id="Layer_2" data-name="Layer 2"><path class="cls-1" d="M95.07,457.32l-2-.07,1.29.19a32.22,32.22,0,0,0,3.91.32l.07-.32Z"/><path class="cls-1" d="M174.65,457.72c.74,0,1.47-.06,2-.09l.82-.06-2.91.13Z"/><path class="cls-2" d="M189.49,456.79l-.91.07-5.7.4c-1.51.11-3.4.22-5.37.31l-.82.06c-.57,0-1.3.07-2,.09a5.12,5.12,0,0,1,1.22.83l2,1.95a6.78,6.78,0,0,1,1.7,3.6l1,12a5.45,5.45,0,0,1-1.24,3.67l-4.22,4.62a9.08,9.08,0,0,1-3.47,2.18l-12.22,3.71a14.37,14.37,0,0,0-3.72,1.9l-11.5,8.7a3.19,3.19,0,0,1-3.46.11l-2.83-1.88a11.12,11.12,0,0,0-3.87-1.47l-.76-.11a10,10,0,0,1-3.81-1.55l-7.2-5.25a22.46,22.46,0,0,0-3.66-2.09l-12.39-5.36c-1.08-.47-2.78-1.32-3.8-1.89,0,0-3.11-1.77-3.82-2.13s-2.39-8.14-2.39-8.14a11.75,11.75,0,0,1,0-4.14l2.06-9.21a32.22,32.22,0,0,1-3.91-.32l-1.29-.19c-3.53-.14-7.51-.31-9.56-.42a11.94,11.94,0,0,1-1.52-.18,22.65,22.65,0,0,0-2.43,1.17l4.58,8.64a3.14,3.14,0,0,1-.48,3.4L72.46,481.6c-.81.84-.53,1.67.63,1.85l14.21,2.18c1.16.17,1.3.83.32,1.46,0,0-18.05,11.54-18.76,11.54s15.64,3.75,15.64,3.75a1.28,1.28,0,0,1,.8,2.17l-8.08,10.71c-.7.93-.36,1.4.75,1l27.12-8.58a1.3,1.3,0,0,1,1.83,1.46l-.33,3.54c-.1,1.16.6,1.56,1.55.89l3.6-2.5a1.23,1.23,0,0,1,2.09.87l2.85,17c.19,1.14.53,1.15.76,0l1.29-6.42c.23-1.14.6-1.14.81,0l4.89,26.14a26.85,26.85,0,0,1,.37,4.19l-.67,72.58c0,1.16.6,1.39,1.36.51l1.49-1.73c.76-.88,1.63-.68,1.94.44l12,43.13c.31,1.12.51,1.09.46-.07l-1.57-32.42c0-1.16.31-1.25.81-.2l10.93,23c.5,1,.89,1,.87-.2l-1.34-65.53c0-1.16.05-3.06.16-4.22l2.43-25.38c.11-1.16,1-1.52,1.88-.8l6.57,5.14c.92.72,1.63.35,1.58-.81l-1.94-43a26.81,26.81,0,0,1,.21-4.2l3.64-25.41a1.48,1.48,0,0,1,2.22-1.18l13.88,6.63c1.05.5,1.75,0,1.56-1.17l-1.42-8.52a1.59,1.59,0,0,1,1.77-1.93l15.59,1.11c1.16.08,1.48-.56.69-1.42l-10.6-11.66c-.79-.86-.49-1.38.65-1.14l12.84,2.66c1.14.24,1.48-.31.75-1.22l-3-3.74a34.06,34.06,0,0,1-2.39-3.48l-1-1.64a9.25,9.25,0,0,1-1.07-4v-4.56a2.12,2.12,0,0,0,0-.44,24.1,24.1,0,0,0-4.55-1Z"/><path class="cls-3" d="M168.73,457.88H168c.5,1.17,1,2.36,1.32,3.4a33.27,33.27,0,0,1,1.57,8.61c0,2.15-2.48,4.27-5.51,4.7a56.12,56.12,0,0,1-10.23.39c-2.59-.22-4.89-2-5.11-3.92s.74-6.48,2.13-10.1l1.09-2.85-9.18.15c.44,1,.85,2.09,1.16,3a33.27,33.27,0,0,1,1.57,8.61c0,2.15-2.48,4.27-5.51,4.7A56.12,56.12,0,0,1,131,475c-2.59-.22-4.9-2-5.11-3.92s.74-6.48,2.13-10.1l1-2.61c-1.82,0-3.54-.06-4.94-.1l-2-.06c.45,1.07.87,2.14,1.18,3.09a32.89,32.89,0,0,1,1.58,8.61c0,2.15-2.48,4.27-5.51,4.7a56.15,56.15,0,0,1-10.23.39c-2.6-.22-4.9-2-5.12-3.92s.74-6.48,2.13-10.1l1.23-3.21L100,457.5l-1.66-.06-.07.32L96.24,467a11.75,11.75,0,0,0,0,4.14s1.68,7.79,2.39,8.14,3.82,2.13,3.82,2.13c1,.57,2.72,1.42,3.8,1.89l12.39,5.36a22.46,22.46,0,0,1,3.66,2.09l7.2,5.25a10,10,0,0,0,3.81,1.55l.76.11a11.12,11.12,0,0,1,3.87,1.47l2.83,1.88a3.19,3.19,0,0,0,3.46-.11l11.5-8.7a14.37,14.37,0,0,1,3.72-1.9l12.22-3.71a9.08,9.08,0,0,0,3.47-2.18l4.22-4.62a5.45,5.45,0,0,0,1.24-3.67l-1-12a6.78,6.78,0,0,0-1.7-3.6l-2-1.95a5.12,5.12,0,0,0-1.22-.83l-.05,0C172.45,457.79,170.37,457.85,168.73,457.88Z"/><path d="M19.22,478.56c1.2-3.69,3.25-9.69,4.55-13.35l3.78-10.67c.79-2.21,2-5.22,3.29-8l1.21-3.4-1.29,2.45a119.7,119.7,0,0,0-5.63,12.89l-3.95,11.14c-1.3,3.65-3.35,9.66-4.56,13.34L10.18,502.6c-.08.27-.18.54-.27.81L14,494.6Z"/><path d="M130.57,450.32l7.4,0-2.53-.08c-3.9-.11-10.27-.11-14.16,0l-12.48.38c3.89-.12,10.26-.23,14.16-.25Z"/><path d="M269.19,510.57,232.08,407.45c-1.32-3.64-3.3-9.67-4.4-13.39l-7.53-25.28a119.22,119.22,0,0,0-5-13.15L207.39,339a59.31,59.31,0,0,1-4-13.35l-2.18-14.09a126,126,0,0,0-3.11-13.72l-.27-.87a70,70,0,0,1-2.39-13.78v-.3c-.2-3.87-.3-10.21-.24-14.08l.49-29c.06-3.87.12-10.21.12-14.09v-11a68.67,68.67,0,0,0-1.45-13.15A64.36,64.36,0,0,1,193,188.31l.45-23.27c.08-3.88,0-10.21-.26-14.08l-.64-11.08a126,126,0,0,0-1.75-13.95L187.88,111c-.74-3.8-2-10-2.84-13.8l-3.69-17.13a110.85,110.85,0,0,0-4-13.47L173,55.37a126.09,126.09,0,0,0-5.93-12.76l-6.2-11.28c-1.87-3.4-5.05-8.89-7.08-12.21l-.58-.95c-2-3.31-5.31-6.66-7.29-7.45a18.68,18.68,0,0,0-8.24-.72,21.27,21.27,0,0,0-9,4.67,36.1,36.1,0,0,0-7.24,10.41l-6.61,15.1c-1.56,3.55-4.07,9.38-5.58,13l-6.06,14.31C101.66,71,99.47,77,98.32,80.67L88.81,111a103.7,103.7,0,0,0-3.09,13.71l-3.09,22c-.54,3.83-1.12,10.14-1.28,14l-1.58,37.65c-.16,3.87-.29,10.21-.29,14.09v72.43c0,3.87-.81,8.11-1.81,9.4s-1.28,5.49-.64,9.31a21.91,21.91,0,0,1,.28,2.39c0,.72-3.06,17.49-3.06,17.49a44.58,44.58,0,0,1-3.44,10.89,69.27,69.27,0,0,0-4.2,10.7l-4.24,14.06c.73-1.89,1.43-3.71,2-5.16,0,0,1.69-4.26,3.14-8.2l.74-2.45c.37-1.24.83-2.61,1.33-4,0-1,1.11-3.2,1.73-4.36.4-.91.77-1.71,1.1-2.3a45,45,0,0,0,3.39-10.81s3-16.32,3-17a19.82,19.82,0,0,0-.25-2.21c-.64-3.82-.37-8,.6-9.26a2.74,2.74,0,0,0,.36-.62v0a9.66,9.66,0,0,1,1-3.53,31.67,31.67,0,0,0,.44-5.16V213.27c0-3.87.13-10.21.29-14.08l1.54-36.65c.07-1.91.25-4.4.48-6.89a.78.78,0,0,1-.19-.86,11.55,11.55,0,0,1,.39-1.25c.19-1.84.39-3.6.59-5l3-21.27a105.28,105.28,0,0,1,3.08-13.71L99.34,84c1.16-3.7,3.34-9.65,4.85-13.23L110,57c1.51-3.57,4-9.4,5.58-13L122,29.49a35.69,35.69,0,0,1,7.14-10.33A21,21,0,0,1,138,14.58a18.37,18.37,0,0,1,8.07.7c1.95.78,5.2,4.12,7.23,7.43l.43.7c2,3.31,5.21,8.81,7.07,12.21l6,10.83a125,125,0,0,1,5.92,12.76L176.82,70a110.85,110.85,0,0,1,4,13.47L184.41,100c.82,3.78,2.09,10,2.84,13.8L190,128.15a128.12,128.12,0,0,1,1.76,13.95l.6,10.59c0,.11,0,.22,0,.33a4.34,4.34,0,0,1,.76,1.77c.1.82-.15,1.19-.63,1.15.12,3.6.18,7.91.12,10.83l-.43,22.55a62.73,62.73,0,0,0,1.28,13,68.55,68.55,0,0,1,1.41,13V226c0,3.87-.05,10.21-.11,14.09l-.48,28.18c-.06,3.88,0,10.21.24,14.08v0A69.37,69.37,0,0,0,197,296.12l.18.59a121.33,121.33,0,0,1,3.11,13.71l2.1,13.56a59.31,59.31,0,0,0,4,13.35l7.5,16.1a117.24,117.24,0,0,1,5,13.15l7.31,24.54c1.11,3.72,3.09,9.74,4.4,13.39l36.3,100.87c1.32,3.65,2,7.59,1.57,8.75s-3.4,2.08-6.59,2.11h0a15.61,15.61,0,0,1-11.51-4.49l-6-6.53c-1.2-1.29-2.73-3-4.3-4.69l-8.23-8.2c-2.75-2.74-7.08-7.39-9.63-10.32l-15.8-18.28c-.88-.87-1.71-1.67-2.44-2.35l-1.72-1.61a14.21,14.21,0,0,1-2.35-3,18.63,18.63,0,0,0-1.75-1.49,6.76,6.76,0,0,0-1.19-.65c.1.58,0,1.05-.34,1.22a42.69,42.69,0,0,1-7.1.92l2,.22a24.1,24.1,0,0,1,4.55,1,12.15,12.15,0,0,1,2.95,1.34,58.6,58.6,0,0,1,7.14,7.14l17.48,20.21c2.55,2.94,6.88,7.58,9.63,10.32l19.56,19.49c2.76,2.74,7.73,5,11.05,5s6.41-1,6.87-2.16S270.5,514.22,269.19,510.57Z"/><path d="M79.1,455a12.46,12.46,0,0,0-1.71,1.46L64.3,469.88l-9.71,10.84-.72.9L47,490.27A62.22,62.22,0,0,1,37,500l-9.83,7.17-.5.36-.61.54a35.73,35.73,0,0,1-9.13,5.69l-.07,0c-2.53,1.36-6,1.52-7.71.37L9,514.09a3.06,3.06,0,0,1-.65-.36c-.93-.71-1.07-2.77-.5-5.17a41.94,41.94,0,0,1-2.34,4.71c-1.35,2.18-1,4.93.72,6.1s5.27,1,7.86-.37a109.7,109.7,0,0,0,10.4-6.68l10.24-7.47a62.22,62.22,0,0,0,10.09-9.71l7.14-9c2.4-3.05,6.59-7.82,9.31-10.6l14.68-15a16.31,16.31,0,0,1,3.6-2.65A22.65,22.65,0,0,1,82,456.65C80.36,456.34,79.15,455.7,79.1,455Z"/><path class="cls-4" d="M40.19,495.55l-13.57,12,.5-.36L37,500A62.22,62.22,0,0,0,47,490.27l6.83-8.65.72-.9-4.39,4.9C47.61,488.51,43.11,493,40.19,495.55Z"/><path class="cls-4" d="M69.58,339.36c-.5,1.35-1,2.72-1.33,4l-.74,2.45a43.14,43.14,0,0,0,2.06-6.38Z"/><path class="cls-4" d="M9,514.09l.06.06c1.71,1.15,5.18,1,7.71-.37l.07,0c-.41.16-.79.29-1.13.39A11.33,11.33,0,0,1,9,514.09Z"/><path class="cls-4" d="M77.72,333a31.6,31.6,0,0,1,2.48,11.92V445.08a21.4,21.4,0,0,1-4.71,12.31L64.3,469.88l13.09-13.4A12.46,12.46,0,0,1,79.1,455v0a3.43,3.43,0,0,1,1.61-2.59c.89-.53,4.8-1.06,8.69-1.18l19.4-.6h0l12.48-.38c3.89-.12,10.26-.12,14.16,0l2.53.08h31.68c3.9,0,10.26.26,14.14.57l1,.08a14,14,0,0,1-.89-6.21l.92-26.43c.14-3.87.46-3.87.72,0l1.79,26.45c.19,2.79-.13,5.21-.76,6.35l2,.16c3.88.31,7.49,1.38,8,2.36a3,3,0,0,1,.37,1,6.76,6.76,0,0,1,1.19.65,18.63,18.63,0,0,1,1.75,1.49,18.5,18.5,0,0,1-2.81-8.89V341.51c0-3.87,1.13-8.47,2.51-10.22l2.52-3.17,1.34,2.11.37,1,2.75,7.65L266.2,504.68c1.32,3.65,2.39,7.58,2.39,8.75s-3,2.42-6.7,2.81c3.19,0,6.14-1,6.59-2.11s-.25-5.1-1.57-8.75l-36.3-100.87c-1.31-3.65-3.29-9.67-4.4-13.39l-7.31-24.54a117.24,117.24,0,0,0-5-13.15l-7.5-16.1a59.31,59.31,0,0,1-4-13.35l-2.1-13.56a121.33,121.33,0,0,0-3.11-13.71l-.18-.59a69.37,69.37,0,0,1-2.39-13.79v0c-.2-3.87-.3-10.2-.24-14.08l.48-28.18c.06-3.88.11-10.22.11-14.09V215.39a68.55,68.55,0,0,0-1.41-13,62.73,62.73,0,0,1-1.28-13l.43-22.55c.06-2.92,0-7.23-.12-10.83a3.43,3.43,0,0,1-1.78-1.15,20.63,20.63,0,0,0-7.09-4.22c-2.38-.78-6.88-2-10-2.82s-8.06-1.82-11-2.33-2.13-.91,1.77-.91h2a48.24,48.24,0,0,1,13.27,2.16c3.39,1.18,7.73,2.86,9.63,3.73a7.75,7.75,0,0,1,3.07,2.62c0-.11,0-.22,0-.33l-.6-10.59A128.12,128.12,0,0,0,190,128.15l-2.79-14.34c-.75-3.8-2-10-2.84-13.8l-3.57-16.54a110.85,110.85,0,0,0-4-13.47l-4.15-10.79a125,125,0,0,0-5.92-12.76l-6-10.83c-1.86-3.4-5-8.9-7.07-12.21l-.43-.7c-2-3.31-5.28-6.65-7.23-7.43a18.37,18.37,0,0,0-8.07-.7,21,21,0,0,0-8.86,4.58A35.69,35.69,0,0,0,122,29.49l-6.38,14.56c-1.56,3.56-4.07,9.39-5.58,13l-5.84,13.78c-1.51,3.58-3.69,9.53-4.85,13.23l-9.25,29.52A105.28,105.28,0,0,0,87,127.25l-3,21.27c-.2,1.42-.4,3.18-.59,5,.35-.92.75-1.57,1-1.57a59,59,0,0,0,7.08-2.81,52.25,52.25,0,0,1,12-3.53c3.12-.38,8.84-1,12.71-1.43l6.45-.66c3.87-.4,3.89-.3,0,.23l-1.55.21a103,103,0,0,0-13.78,3l-7,2.16A77.86,77.86,0,0,0,88,154.44c-2.32,1.3-4.15,1.72-4.77,1.21-.23,2.49-.41,5-.48,6.89L81.2,199.19c-.16,3.87-.29,10.21-.29,14.08V284a31.67,31.67,0,0,1-.44,5.16,14.22,14.22,0,0,1,1.32-2.3c1.26-1.74,3.65-3.17,5.31-3.17A10.62,10.62,0,0,1,93,286.2c1.55,1.35,2.63,5.63,2.39,9.5l-.54,8.48c-.24,3.87-.36,10.2-.27,14.07l1.08,45.88c.09,3.88.17,10.22.17,14.09v44.32c0,3.87-.13,3.87-.29,0L90.4,297.11c-.16-3.87-1.08-7.35-2.06-7.74S85,290.18,83,292s-3.49,2.15-3.54.76a2.74,2.74,0,0,1-.36.62c-1,1.27-1.24,5.44-.6,9.26a19.82,19.82,0,0,1,.25,2.21c0,.7-3,17-3,17a45,45,0,0,1-3.39,10.81c-.33.59-.7,1.39-1.1,2.3.24-.46.42-.76.42-.76C73.66,330.87,76.35,330.32,77.72,333Zm105.88,4.21V291.42a6.47,6.47,0,0,1,2.83-4.79c1.56-1,5.39-1,8.5-.08v.7c0,2.49-1,3.94-2.26,3.22a5,5,0,0,0-4.52,0c-1.24.72-2.25,3.63-2.25,6.47s.11,8.32.25,12.2c0,0,.62,17.33-.25,18.86s.87,19.55,0,21.11-.34,48.12-.34,48.12c.05,3.88-.06,3.88-.23,0l-1.42-31.78c-.17-3.87-.31-10.21-.31-14.09ZM132,141.76a18.65,18.65,0,0,1,6.38-1.06,19.81,19.81,0,0,1,6.51,1.06c1.3.58-.82,1.05-4.72,1.05H130.8C130.24,142.81,130.78,142.34,132,141.76Zm-21.53,58.68,2.49-1.1a3.56,3.56,0,0,1,3.52.55l3.92,3.51a19,19,0,0,0,3.48,2.36l4.7,2.34a12.26,12.26,0,0,0,4,1.05l9.93.49a9.78,9.78,0,0,0,4-.83l6.11-3.05a3.73,3.73,0,0,0,1.9-3.06v-3.52a5.63,5.63,0,0,0-1.54-3.57l-3.25-3.07a9.48,9.48,0,0,0-3.6-2l-11.5-2.86a28.14,28.14,0,0,0-4.18-.64l-7.09-.44a11.57,11.57,0,0,1-4-1.14l-4.06-2.21a3.91,3.91,0,0,1-1.87-3.12v-2.82a5.48,5.48,0,0,1,1.58-3.53L119,170.3a21.12,21.12,0,0,1,3.45-2.41l6.88-3.65a10.25,10.25,0,0,1,4-1H142c1.17,0,3.08.11,4.24.25l7.67.91c1.16.13,3.07.25,4.23.25h3.55a3.31,3.31,0,0,1,2.87,2l.63,1.67a2.81,2.81,0,0,1-1,3.16l-2.84,1.88a8.36,8.36,0,0,1-3.89,1.17h-4.74a10.29,10.29,0,0,1-4-1l-5.67-3a10.33,10.33,0,0,0-4-1h-8.18a5,5,0,0,0-3.45,1.65l-1.9,2.34a3,3,0,0,0-.1,3.37l1.07,1.49a5.17,5.17,0,0,0,3.36,1.87l14.88,1.1a9.85,9.85,0,0,1,3.91,1.31l8.47,5.45a8.23,8.23,0,0,1,2.63,3.08l3.26,7.4a6.82,6.82,0,0,1,.27,4l-1.67,5.8a5.93,5.93,0,0,1-2.43,3.08L152.87,215a11.3,11.3,0,0,1-4,1.21l-14.17,1.09a15.83,15.83,0,0,1-4.18-.35l-7.21-1.79a12.26,12.26,0,0,1-3.74-1.82L113,208.24a11.23,11.23,0,0,1-2.62-3.2l-.93-1.85A2,2,0,0,1,110.47,200.44Zm18.6,48.41c-.39-2.13-3.1-5.61-6-7.75A77,77,0,0,1,113,232l-1.92-2.15c-2.59-2.89-4.23-6.16-3.65-7.26a4.64,4.64,0,0,1,3.55-2.11,7.29,7.29,0,0,1,4.25,1.29l5.31,4.23a70,70,0,0,1,6.73,6.34,20.58,20.58,0,0,0,8.49,4.93c2.93.77,7.07-1,9.21-3.88s5.81-7.38,8.15-9.95,5.55-5,7.14-5.29a4.16,4.16,0,0,1,4.25,1.83,4.75,4.75,0,0,1-.77,4.94c-1.17,1.36-3.88,4.55-6,7.06a31.43,31.43,0,0,0-5,7.76,9.3,9.3,0,0,0,0,5.63,31.51,31.51,0,0,0,2.84,4.93c1,1.36,3.2,4.06,5,6a46,46,0,0,1,6,9.7c1.55,3.4,3.62,8.12,4.6,10.5A23.88,23.88,0,0,1,173,282.6a6.18,6.18,0,0,1-1.77,3.6c-1,1-2.89.49-4.25-1.06a45.13,45.13,0,0,1-5.31-9.28l-1.43-3.28a73.3,73.3,0,0,0-6.72-11.75c-2.14-2.9-5.33-5.92-7.08-6.69a8.34,8.34,0,0,0-6.73.7c-1.95,1.17-5.29,4.77-7.42,8L128,269.38c-2.13,3.24-5.69,8.5-7.92,11.68l-3.24,4.64c-2.22,3.18-5,5.79-6.17,5.81a7.11,7.11,0,0,1-3.89-1.41c-1-.79-1.77-1.72-1.77-2.06a32,32,0,0,1,2.83-5.29c1.56-2.56,4.65-7.26,6.88-10.44l3.24-4.64c2.22-3.18,5.8-7.84,7.94-10.36S129.46,251,129.07,248.85ZM96.38,444.93c.33-3.11.65-6.09.71-6.62s.84,2,1.75,5.64.58,6.62-.71,6.62S96.05,448,96.38,444.93Z"/><path class="cls-4" d="M213.82,471.47c-1.93-2.15-4.89-5.21-7.44-7.73L222.18,482c2.55,2.93,6.88,7.58,9.63,10.32l8.23,8.2c-1.88-2.06-3.79-4.17-5.21-5.75Z"/><path class="cls-4" d="M23.77,465.21c-1.3,3.66-3.35,9.66-4.55,13.35L14,494.6,15.64,491a99,99,0,0,0,4.71-13.1c1-3.69,2.83-9.69,4.12-13.34l6.37-18c-1.26,2.79-2.5,5.8-3.29,8Z"/><path class="cls-5" d="M8.39,513.73a3.06,3.06,0,0,0,.65.36,11.33,11.33,0,0,0,6.71,0c.34-.1.72-.23,1.13-.39A35.73,35.73,0,0,0,26,508.05l.61-.54,13.57-12c2.92-2.57,7.42-7,10-9.93l4.39-4.9,9.71-10.84,11.19-12.49a21.4,21.4,0,0,0,4.71-12.31V344.92A31.6,31.6,0,0,0,77.72,333c-1.37-2.68-4.06-2.13-6,1.24,0,0-.18.3-.42.76-.62,1.16-1.71,3.33-1.73,4.36v0a43.14,43.14,0,0,1-2.06,6.38c-1.45,3.94-3.14,8.2-3.14,8.2-.57,1.45-1.27,3.27-2,5.16-1.08,2.83-2.22,5.84-3,8l-8.59,23.4c-1.34,3.64-3.49,9.61-4.79,13.27L32.05,443.13l-1.21,3.4-6.37,18c-1.29,3.65-3.15,9.65-4.12,13.34A99,99,0,0,1,15.64,491L14,494.6l-4.05,8.81-1,2.1a16.49,16.49,0,0,0-1,3.05C7.32,511,7.46,513,8.39,513.73Z"/><path class="cls-5" d="M268.59,513.43c0-1.17-1.07-5.1-2.39-8.75L206.55,338.9l-2.75-7.65-.37-1-1.34-2.11-2.52,3.17c-1.38,1.75-2.51,6.35-2.51,10.22V447.9a18.5,18.5,0,0,0,2.81,8.89,14.21,14.21,0,0,0,2.35,3l1.72,1.61c.73.68,1.56,1.48,2.44,2.35,2.55,2.52,5.51,5.58,7.44,7.73l21,23.32c1.42,1.58,3.33,3.69,5.21,5.75,1.57,1.72,3.1,3.4,4.3,4.69l6,6.53a15.61,15.61,0,0,0,11.51,4.49h0C265.58,515.85,268.59,514.59,268.59,513.43Z"/><path class="cls-6" d="M110.41,205a11.23,11.23,0,0,0,2.62,3.2l6.57,5.14a12.26,12.26,0,0,0,3.74,1.82l7.21,1.79a15.83,15.83,0,0,0,4.18.35l14.17-1.09a11.3,11.3,0,0,0,4-1.21l6.22-3.54a5.93,5.93,0,0,0,2.43-3.08l1.67-5.8a6.82,6.82,0,0,0-.27-4l-3.26-7.4a8.23,8.23,0,0,0-2.63-3.08l-8.47-5.45a9.85,9.85,0,0,0-3.91-1.31l-14.88-1.1a5.17,5.17,0,0,1-3.36-1.87L125.34,177a3,3,0,0,1,.1-3.37l1.9-2.34a5,5,0,0,1,3.45-1.65H139a10.33,10.33,0,0,1,4,1l5.67,3a10.29,10.29,0,0,0,4,1h4.74a8.36,8.36,0,0,0,3.89-1.17l2.84-1.88a2.81,2.81,0,0,0,1-3.16l-.63-1.67a3.31,3.31,0,0,0-2.87-2H158.1c-1.16,0-3.07-.12-4.23-.25l-7.67-.91c-1.16-.14-3.07-.25-4.24-.25h-8.64a10.25,10.25,0,0,0-4,1l-6.88,3.65A21.12,21.12,0,0,0,119,170.3l-3.93,3.51a5.48,5.48,0,0,0-1.58,3.53v2.82a3.91,3.91,0,0,0,1.87,3.12l4.06,2.21a11.57,11.57,0,0,0,4,1.14l7.09.44a28.14,28.14,0,0,1,4.18.64l11.5,2.86a9.48,9.48,0,0,1,3.6,2l3.25,3.07a5.63,5.63,0,0,1,1.54,3.57v3.52a3.73,3.73,0,0,1-1.9,3.06l-6.11,3.05a9.78,9.78,0,0,1-4,.83l-9.93-.49a12.26,12.26,0,0,1-4-1.05l-4.7-2.34a19,19,0,0,1-3.48-2.36l-3.92-3.51a3.56,3.56,0,0,0-3.52-.55l-2.49,1.1a2,2,0,0,0-1,2.75Z"/><path class="cls-6" d="M117.94,267.67l-3.24,4.64c-2.23,3.18-5.32,7.88-6.88,10.44A32,32,0,0,0,105,288c0,.34.79,1.27,1.77,2.06a7.11,7.11,0,0,0,3.89,1.41c1.17,0,3.95-2.63,6.17-5.81l3.24-4.64c2.23-3.18,5.79-8.44,7.92-11.68l4.29-6.53c2.13-3.24,5.47-6.84,7.42-8a8.34,8.34,0,0,1,6.73-.7c1.75.77,4.94,3.79,7.08,6.69a73.3,73.3,0,0,1,6.72,11.75l1.43,3.28a45.13,45.13,0,0,0,5.31,9.28c1.36,1.55,3.27,2,4.25,1.06a6.18,6.18,0,0,0,1.77-3.6,23.88,23.88,0,0,0-1.79-6.15c-1-2.38-3.05-7.1-4.6-10.5a46,46,0,0,0-6-9.7c-1.75-1.93-4-4.63-5-6a31.51,31.51,0,0,1-2.84-4.93,9.3,9.3,0,0,1,0-5.63,31.43,31.43,0,0,1,5-7.76c2.14-2.51,4.85-5.7,6-7.06a4.75,4.75,0,0,0,.77-4.94,4.16,4.16,0,0,0-4.25-1.83c-1.59.34-4.81,2.72-7.14,5.29s-6,7-8.15,9.95-6.28,4.65-9.21,3.88a20.58,20.58,0,0,1-8.49-4.93,70,70,0,0,0-6.73-6.34l-5.31-4.23a7.29,7.29,0,0,0-4.25-1.29,4.64,4.64,0,0,0-3.55,2.11c-.58,1.1,1.06,4.37,3.65,7.26L113,232a77,77,0,0,0,10,9.14c2.92,2.14,5.63,5.62,6,7.75s-1,5.94-3.19,8.46S120.16,264.49,117.94,267.67Z"/><path d="M106.09,461c-1.39,3.62-2.34,8.17-2.13,10.1s2.52,3.7,5.12,3.92a56.15,56.15,0,0,0,10.23-.39c3-.43,5.51-2.55,5.51-4.7a32.89,32.89,0,0,0-1.58-8.61c-.31-1-.73-2-1.18-3.09h-.58c.46,1.06.89,2.15,1.21,3.1a29.68,29.68,0,0,1,1.42,7.75c0,1.94-2.23,3.84-5,4.23a51.09,51.09,0,0,1-9.21.35c-2.33-.2-4.41-1.78-4.6-3.52s.78-6.14,2.17-9.76l.62-1.63c.12-.31.25-.61.39-.91l-1.2,0Z"/><path class="cls-6" d="M107.51,460.34c-1.39,3.62-2.37,8-2.17,9.76s2.27,3.32,4.6,3.52a51.09,51.09,0,0,0,9.21-.35c2.73-.39,5-2.29,5-4.23a29.68,29.68,0,0,0-1.42-7.75c-.32-1-.75-2-1.21-3.1l-7.29-.22-5.67-.17c-.14.3-.27.6-.39.91Z"/><path d="M125.92,471.07c.21,1.94,2.52,3.7,5.11,3.92a56.12,56.12,0,0,0,10.23-.39c3-.43,5.51-2.55,5.51-4.7a33.27,33.27,0,0,0-1.57-8.61c-.31-.93-.72-2-1.16-3h-.56c.44,1,.86,2.09,1.17,3a29.64,29.64,0,0,1,1.41,7.75c0,1.94-2.23,3.84-4.95,4.23a51.09,51.09,0,0,1-9.21.35c-2.34-.2-4.41-1.78-4.6-3.52s.78-6.14,2.16-9.76l.63-1.63c0-.11.09-.23.14-.34h-1.18l-1,2.61C126.66,464.59,125.7,469.14,125.92,471.07Z"/><path class="cls-6" d="M129.46,460.34c-1.38,3.62-2.36,8-2.16,9.76s2.26,3.32,4.6,3.52a51.09,51.09,0,0,0,9.21-.35c2.72-.39,4.95-2.29,4.95-4.23a29.64,29.64,0,0,0-1.41-7.75c-.31-.92-.73-2-1.17-3l-5.21.08c-2.19,0-5.17,0-8,0,0,.11-.1.23-.14.34Z"/><path d="M150,471.07c.22,1.94,2.52,3.7,5.11,3.92a56.12,56.12,0,0,0,10.23-.39c3-.43,5.51-2.55,5.51-4.7a33.27,33.27,0,0,0-1.57-8.61c-.35-1-.82-2.23-1.32-3.4h-.57c.51,1.15,1,2.35,1.34,3.39a29.64,29.64,0,0,1,1.41,7.75c0,1.94-2.23,3.84-4.95,4.23a51.09,51.09,0,0,1-9.21.35c-2.34-.2-4.41-1.78-4.6-3.52s.78-6.14,2.16-9.76l.63-1.63c.08-.2.16-.41.25-.61l-1.2,0L152.13,461C150.74,464.59,149.78,469.14,150,471.07Z"/><path class="cls-6" d="M153.54,460.34c-1.38,3.62-2.36,8-2.16,9.76s2.26,3.32,4.6,3.52a51.09,51.09,0,0,0,9.21-.35c2.72-.39,4.95-2.29,4.95-4.23a29.64,29.64,0,0,0-1.41-7.75c-.35-1-.83-2.24-1.34-3.39l-13,.2c-.09.2-.17.41-.25.61Z"/><path class="cls-7" d="M83,292c2-1.84,4.34-3,5.31-2.65s1.9,3.87,2.06,7.74l5.09,125.43c.16,3.87.29,3.87.29,0V378.22c0-3.87-.08-10.21-.17-14.09l-1.08-45.88c-.09-3.87,0-10.2.27-14.07l.54-8.48c.24-3.87-.84-8.15-2.39-9.5a10.62,10.62,0,0,0-5.85-2.47c-1.66,0-4,1.43-5.31,3.17a14.22,14.22,0,0,0-1.32,2.3,9.66,9.66,0,0,0-1,3.53v0C79.54,294.17,81.11,293.84,83,292Z"/><path class="cls-7" d="M98.13,450.57c1.29,0,1.61-3,.71-6.62s-1.69-6.18-1.75-5.64-.38,3.51-.71,6.62S96.84,450.57,98.13,450.57Z"/><path class="cls-7" d="M185.33,397.24c.17,3.87.28,3.87.23,0,0,0-.54-46.56.34-48.12s-.88-19.58,0-21.11.25-18.86.25-18.86c-.14-3.88-.25-9.36-.25-12.2s1-5.75,2.25-6.47a5,5,0,0,1,4.52,0c1.25.72,2.26-.73,2.26-3.22v-.7c-3.11-.95-6.94-.91-8.5.08a6.47,6.47,0,0,0-2.83,4.79v59.95c0,3.88.14,10.22.31,14.09Z"/><path class="cls-7" d="M187.28,444.74l-1.79-26.45c-.26-3.86-.58-3.86-.72,0l-.92,26.43a14,14,0,0,0,.89,6.21l1.78.15C187.15,450,187.47,447.53,187.28,444.74Z"/><path class="cls-7" d="M88,154.44a77.86,77.86,0,0,1,12.43-5.26l7-2.16a103,103,0,0,1,13.78-3l1.55-.21c3.86-.53,3.84-.63,0-.23l-6.45.66c-3.87.4-9.59,1.05-12.71,1.43a52.25,52.25,0,0,0-12,3.53A59,59,0,0,1,84.45,152c-.28,0-.68.65-1,1.57a11.55,11.55,0,0,0-.39,1.25.78.78,0,0,0,.19.86C83.84,156.16,85.67,155.74,88,154.44Z"/><path class="cls-7" d="M189.35,150.4c-1.9-.87-6.24-2.55-9.63-3.73a48.24,48.24,0,0,0-13.27-2.16h-2c-3.9,0-4.69.41-1.77.91s7.86,1.55,11,2.33,7.61,2,10,2.82a20.63,20.63,0,0,1,7.09,4.22,3.43,3.43,0,0,0,1.78,1.15c.48,0,.73-.33.63-1.15a4.34,4.34,0,0,0-.76-1.77A7.75,7.75,0,0,0,189.35,150.4Z"/><path class="cls-7" d="M130.8,142.81h9.37c3.9,0,6-.47,4.72-1.05a19.81,19.81,0,0,0-6.51-1.06,18.65,18.65,0,0,0-6.38,1.06C130.78,142.34,130.24,142.81,130.8,142.81Z"/><path class="cls-8" d="M188.54,451.25l-2-.16-1.78-.15-1-.08c-3.88-.31-10.24-.57-14.14-.57H138l-7.4,0-7.61,0c-3.9,0-10.27.13-14.16.25h0l-19.4.6c-3.89.12-7.8.65-8.69,1.18A3.43,3.43,0,0,0,79.1,455v0c.05.68,1.26,1.32,2.92,1.63a11.94,11.94,0,0,0,1.52.18c2,.11,6,.28,9.56.42l2,.07,3.3.12,1.66.06,7.29.26,1.2,0,5.67.17,7.29.22h.58l2,.06c1.4,0,3.12.08,4.94.1h1.18c2.87,0,5.85,0,8,0l5.21-.08H144l9.18-.15,1.2,0,13-.2h1.34c1.64,0,3.72-.09,5.87-.18l2.91-.13c2-.09,3.86-.2,5.37-.31l5.7-.4.91-.07a42.69,42.69,0,0,0,7.1-.92c.33-.17.44-.64.34-1.22a3,3,0,0,0-.37-1C196,452.63,192.42,451.56,188.54,451.25Z"/><path class="cls-6" d="M134.83,363.51s0,0,0,0S134.84,363.5,134.83,363.51Z"/><path class="cls-6" d="M134.85,350.58c2.55,2.62,6.33,3.67,9.35,1.19,2.66-2.18,3.43-6,3.51-9.24.1-4-.64-8.13-1.09-12.13a2.19,2.19,0,0,0-2.13-2.11,2.13,2.13,0,0,0-2.12,2.11c.35,3.14.79,6.29,1,9.44.19,2.64.2,5.67-1.2,7.87a3.59,3.59,0,0,1-.77.9,1.84,1.84,0,0,1-1,.42,3.92,3.92,0,0,1-2.67-1.53,14.94,14.94,0,0,1-3.21-6.69c-.86-3.31-1.3-6.73-2.62-9.91a2.21,2.21,0,0,0-2.62-1.48,2.13,2.13,0,0,0-1.48,2.6C130.39,338.16,129.92,345.54,134.85,350.58Z"/><path class="cls-6" d="M136.83,384.44a18.25,18.25,0,0,0,8.11-1.42c2.27-.88,4.7-2,6-4.15,1.46-2.49.71-5.42-.56-7.81a9.63,9.63,0,0,0-5.61-4.71,46.79,46.79,0,0,0-6.21-1,8.57,8.57,0,0,1-2.62-.8,2.66,2.66,0,0,1-.86-.61l-.11-.17.15-.08c.28-.16.58-.3.87-.43a16.11,16.11,0,0,1,1.87-.68,17.1,17.1,0,0,1,3.82-.74,18.85,18.85,0,0,1,8.08,1.16,2.12,2.12,0,1,0,1.13-4.08,22.38,22.38,0,0,0-14.87-.19c-2.33.81-5.43,2-5.41,4.93,0,2.63,2.44,4.38,4.68,5.21a30,30,0,0,0,5.92,1.07c1.93.28,3.64.64,4.85,2.22,1,1.28,2.07,3.57,1,4.92a6.47,6.47,0,0,1-2.06,1.39,21.52,21.52,0,0,1-3.19,1.2c-2.32.68-5.12,1-7.21-.08a6,6,0,0,1-2.19-1.88,3.81,3.81,0,0,1-.59-1.25s-.09-.45-.1-.46a5.41,5.41,0,0,1,0-.9,2.14,2.14,0,0,0-2.12-2.12,2.16,2.16,0,0,0-2.13,2.12C127.09,380.3,132,384,136.83,384.44Zm-2-20.89s0,0,0,0S134.84,363.52,134.85,363.55Z"/><path class="cls-6" d="M155.45,408.9a46.66,46.66,0,0,0-3.35-11.8,45.51,45.51,0,0,0-2.68-5.31,16.47,16.47,0,0,0-3.45-4.46c-3.46-2.85-8-2.07-11.18.78a20.44,20.44,0,0,0-3.54,4.52,23.62,23.62,0,0,0-2.72,5.52,14.26,14.26,0,0,0-.22,7c.41,2.21,1.23,4.35,1.51,6.59a2.18,2.18,0,0,0,2.12,2.11,2.13,2.13,0,0,0,2.13-2.11,45.61,45.61,0,0,0-1.17-5.55,17.57,17.57,0,0,1-.7-4.42l.24,0c5.09-.83,10.46-2.05,15.6-1a2.36,2.36,0,0,0,1,0,45,45,0,0,1,2.32,9.27,2.13,2.13,0,0,0,4.1-1.12Zm-22-11.6.34-.65a28.59,28.59,0,0,1,2.62-4.08c1.57-2,4.34-4,6.67-2.16a12.1,12.1,0,0,1,2.67,3.51c.47.79.91,1.6,1.33,2.42C142.53,395.81,138,396.54,133.45,397.3Z"/></g></svg>