<svg xmlns="http://www.w3.org/2000/svg" viewBox="0 0 87.48 87.35"><defs><style>.cls-1{fill:#417ec1;}.cls-2{fill:#356d9f;}</style></defs><g id="Layer_2" data-name="Layer 2"><path class="cls-1" d="M83.69,64.9c-4.63-3.15-9.41-6.09-14-9.33-3.39-2.4-6.63-2.41-10.1-.32-2.22,1.34-4.53,2.53-6.82,3.8A142.27,142.27,0,0,1,28.4,34.7c1.54-2.76,2.94-5.16,4.25-7.62a7.81,7.81,0,0,0-.45-8.81c-3.29-4.74-6.34-9.64-9.57-14.41-2.88-4.26-6-5.06-10-2.08a110.23,110.23,0,0,0-9.57,8.53A9.41,9.41,0,0,0,.64,20.78c1.6,4.64,3.11,9.45,5.62,13.61,11.17,18.5,26.28,33.3,44.14,45.33a49.62,49.62,0,0,0,16.17,7.14c4,1,7.57.69,10.49-2.42a113.67,113.67,0,0,0,8.58-9.54C88.66,70.88,87.92,67.79,83.69,64.9Z"/><path class="cls-2" d="M79.83,43.48H83c1.36-11.73-6.9-28-21.41-35.15-5.44-2.67-11.15-4.64-17.61-4v3.4C67,12,74.64,19.61,79.83,43.48Z"/><path class="cls-2" d="M68.51,43.45h3.58c1-16.73-16.43-30.06-28.27-27.79,0,1.05.1,2.13.15,3.28C58.56,20.75,66.67,28.83,68.51,43.45Z"/><path class="cls-2" d="M44.19,29.88c7.87.9,12.31,5.77,13.55,13.71h3.47A16.8,16.8,0,0,0,50.88,27.36c-2.17-.91-4.48-2.18-7.12-.82,0,.72,0,1.37,0,2A7.34,7.34,0,0,0,44.19,29.88Z"/></g></svg>