<svg id="Layer_1" data-name="Layer 1" xmlns="http://www.w3.org/2000/svg" viewBox="0 0 1920 632.63"><path d="M44.24,203.5,0,190.23V177H110.6q46,0,73,19t46.45,56.19L335.34,456.56l98.21-239.78-66.36-26.55V177H530.88v13.27l-70.79,26.55L292,628.21H265.44Z"/><path d="M438,606.09l53.09-13.28V203.5L438,190.23V177H553q79.62,0,79.63,79.63V592.81l53.09,13.28v13.27H438Zm70.79-499.91Q491,88.48,491.06,61.94t17.7-44.24Q526.44,0,553,0t44.24,17.7q17.68,17.7,17.69,44.24t-17.69,44.24q-17.72,17.7-44.24,17.69T508.76,106.18Z"/><path d="M716.68,605.64Q676,578.67,652.09,526T628.2,398.16q0-113.25,52.65-173.86t142-60.61q42.46,0,74.32,17.69a134.76,134.76,0,0,1,27.43,17.7V26.54L871.52,13.27V0h115q79.62,0,79.63,79.63V592.81l53.08,13.28v13.27h-79.63q-53.09,0-82.28-32.74-12.4-13.27-19.47-33.62a160.86,160.86,0,0,1-29.2,39.81q-39.81,39.83-99.09,39.82Q757.36,632.63,716.68,605.64Zm187.58-39.37Q914,553,924.61,530.88V225.62a192,192,0,0,0-20.35-17.69q-23.89-17.7-46-17.7-38.06,0-58.84,44.24T778.62,398.16q0,114.13,19,158.82T845,601.66Q877.7,601.66,904.26,566.27Z"/><path d="M1129,570.25q-62.84-62.37-62.82-172.09,0-71.67,27.43-124.76t76.54-81.4q49.09-28.31,112.81-28.31t111.92,23.89q48.23,23.88,74.33,64.14t26.1,88.93q0,22.13-4.43,38l-4.42,15.05q-38.06,8-82.29,13.27a1325.77,1325.77,0,0,1-187.57,13.27q0,102.64,28.31,146.43t77.86,43.8a130.5,130.5,0,0,0,64.15-16.37q29.64-16.36,46.9-43.35t17.25-55.3h22.12q0,35.4-21.24,67.24t-59.28,50.88q-38.06,19-87.59,19Q1191.8,632.63,1129,570.25Zm179.62-176.51a215.61,215.61,0,0,0,31.85-4.43q.87-4.41,4.42-19.46a238.74,238.74,0,0,0,4.43-46.9q0-73.42-19.47-107.5T1283,181.38q-66.36,0-66.36,216.78Q1273.2,398.16,1308.61,393.74Z"/><path d="M1513.44,570.25q-62.39-62.37-62.38-172.09t62.38-172.09q62.37-62.38,172.09-62.38t172.09,62.38Q1920,288.44,1920,398.16t-62.38,172.09q-62.37,62.38-172.09,62.38T1513.44,570.25Zm231.81-4.86q24.33-49.54,24.33-167.23t-24.33-167.23q-24.35-49.55-59.72-49.55t-59.73,49.55q-24.35,49.56-24.33,167.23t24.33,167.23q24.33,49.56,59.73,49.54T1745.25,565.39Z"/></svg>